<svg width="184" height="50" viewBox="0 0 184 50" fill="none" xmlns="http://www.w3.org/2000/svg">
<path d="M59.127 32.0823V14.7045H70.0749V17.1374H61.8081V22.1273H69.3798V24.5602H61.8081V29.6494H70.1991V32.0823H59.127Z" fill="#474752"/>
<path d="M78.1331 32.4298C77.1235 32.4298 76.1884 32.1816 75.3278 31.6851C74.4672 31.1886 73.7721 30.4769 73.2425 29.5501C72.7294 28.6067 72.4729 27.473 72.4729 26.149V25.7766C72.4729 24.4692 72.7294 23.3438 73.2425 22.4004C73.7556 21.457 74.4424 20.7371 75.303 20.2406C76.1636 19.7441 77.107 19.4958 78.1331 19.4958C78.9275 19.4958 79.5895 19.5951 80.1191 19.7937C80.6653 19.9923 81.1121 20.2489 81.4597 20.5633C81.8073 20.8612 82.0721 21.1757 82.2541 21.5067H82.6513V14.7045H85.2083V32.0823H82.701V30.3445H82.3038C81.9893 30.8741 81.5094 31.3541 80.8639 31.7844C80.235 32.2147 79.3247 32.4298 78.1331 32.4298ZM78.853 30.1956C79.9619 30.1956 80.8722 29.8397 81.5838 29.1281C82.312 28.4164 82.6761 27.3986 82.6761 26.0746V25.8511C82.6761 24.5437 82.3203 23.5341 81.6087 22.8224C80.897 22.1108 79.9785 21.7549 78.853 21.7549C77.7607 21.7549 76.8505 22.1108 76.1222 22.8224C75.4106 23.5341 75.0548 24.5437 75.0548 25.8511V26.0746C75.0548 27.3986 75.4106 28.4164 76.1222 29.1281C76.8505 29.8397 77.7607 30.1956 78.853 30.1956Z" fill="#474752"/>
<path d="M88.3767 26.0249V25.6525C88.3767 24.3616 88.6332 23.261 89.1463 22.3507C89.6759 21.4405 90.371 20.7371 91.2316 20.2406C92.0922 19.7441 93.0356 19.4958 94.0617 19.4958C95.2533 19.4958 96.1636 19.7193 96.7925 20.1661C97.4379 20.613 97.9096 21.0929 98.2075 21.606H98.6047V19.8434H101.087V34.5897C101.087 35.3344 100.864 35.9302 100.417 36.3771C99.9867 36.8239 99.3909 37.0474 98.6296 37.0474H90.3875V34.8131H97.8351C98.3151 34.8131 98.5551 34.5648 98.5551 34.0683V30.1707H98.1579C97.9758 30.4686 97.7193 30.7748 97.3883 31.0893C97.0573 31.4037 96.6187 31.6603 96.0725 31.8589C95.5429 32.0575 94.8726 32.1568 94.0617 32.1568C93.0356 32.1568 92.0839 31.9168 91.2068 31.4368C90.3462 30.9403 89.6593 30.2369 89.1463 29.3267C88.6332 28.3999 88.3767 27.2993 88.3767 26.0249ZM94.7568 29.9225C95.8657 29.9225 96.7759 29.5749 97.4876 28.8798C98.2158 28.1682 98.5799 27.1917 98.5799 25.9504V25.727C98.5799 24.4526 98.2241 23.4762 97.5124 22.7976C96.8007 22.1025 95.8822 21.7549 94.7568 21.7549C93.6645 21.7549 92.7542 22.1025 92.026 22.7976C91.3143 23.4762 90.9585 24.4526 90.9585 25.727V25.9504C90.9585 27.1917 91.3143 28.1682 92.026 28.8798C92.7542 29.5749 93.6645 29.9225 94.7568 29.9225Z" fill="#474752"/>
<path d="M110.463 32.4298C109.221 32.4298 108.137 32.1733 107.21 31.6603C106.284 31.1307 105.555 30.3942 105.026 29.4508C104.513 28.4909 104.256 27.382 104.256 26.1242V25.8263C104.256 24.5519 104.513 23.4431 105.026 22.4997C105.539 21.5398 106.25 20.8033 107.161 20.2902C108.088 19.7606 109.155 19.4958 110.363 19.4958C111.538 19.4958 112.564 19.7606 113.442 20.2902C114.335 20.8033 115.03 21.5232 115.527 22.45C116.023 23.3769 116.272 24.4609 116.272 25.7022V26.6704H106.863C106.896 27.7461 107.252 28.6067 107.93 29.2522C108.625 29.8811 109.486 30.1956 110.512 30.1956C111.472 30.1956 112.192 29.9804 112.672 29.5501C113.168 29.1198 113.549 28.6233 113.814 28.0606L115.924 29.1529C115.692 29.6163 115.353 30.1045 114.906 30.6176C114.476 31.1307 113.905 31.561 113.193 31.9085C112.482 32.2561 111.571 32.4298 110.463 32.4298ZM106.888 24.7092H113.665C113.599 23.7823 113.268 23.0624 112.672 22.5493C112.076 22.0197 111.298 21.7549 110.338 21.7549C109.378 21.7549 108.592 22.0197 107.98 22.5493C107.384 23.0624 107.02 23.7823 106.888 24.7092Z" fill="#474752"/>
<path d="M119.275 32.0823V14.7045H121.956V21.9287H122.353L128.833 14.7045H132.333L124.488 23.2693L132.606 32.0823H129.007L122.353 24.7092H121.956V32.0823H119.275Z" fill="#474752"/>
<path d="M138.494 32.4298C137.617 32.4298 136.831 32.2809 136.136 31.983C135.457 31.6851 134.911 31.2465 134.497 30.6672C134.1 30.088 133.901 29.3846 133.901 28.5571C133.901 27.713 134.1 27.0179 134.497 26.4718C134.911 25.909 135.465 25.487 136.16 25.2057C136.872 24.9243 137.675 24.7836 138.569 24.7836H142.292V23.9892C142.292 23.2776 142.077 22.7066 141.647 22.2763C141.217 21.846 140.555 21.6308 139.661 21.6308C138.784 21.6308 138.113 21.8377 137.65 22.2514C137.187 22.6652 136.88 23.2031 136.731 23.8651L134.348 23.0955C134.547 22.4335 134.861 21.8377 135.292 21.3081C135.738 20.7619 136.326 20.3233 137.054 19.9923C137.782 19.6613 138.66 19.4958 139.686 19.4958C141.274 19.4958 142.524 19.9013 143.434 20.7123C144.345 21.5232 144.8 22.6735 144.8 24.163V29.2025C144.8 29.6991 145.031 29.9473 145.495 29.9473H146.537V32.0823H144.626C144.047 32.0823 143.575 31.9333 143.211 31.6354C142.847 31.3375 142.665 30.932 142.665 30.419V30.3445H142.292C142.16 30.5928 141.961 30.8824 141.697 31.2134C141.432 31.5444 141.043 31.834 140.53 32.0823C140.017 32.314 139.338 32.4298 138.494 32.4298ZM138.866 30.3197C139.893 30.3197 140.72 30.0301 141.349 29.4508C141.978 28.855 142.292 28.044 142.292 27.0179V26.7697H138.717C138.039 26.7697 137.493 26.9186 137.079 27.2165C136.665 27.4979 136.458 27.9199 136.458 28.4826C136.458 29.0453 136.674 29.4922 137.104 29.8232C137.534 30.1542 138.122 30.3197 138.866 30.3197Z" fill="#474752"/>
<path d="M149.024 32.0823V19.8434H151.531V21.2833H151.928C152.127 20.7702 152.441 20.3978 152.872 20.1661C153.318 19.9179 153.865 19.7937 154.51 19.7937H155.975V22.1025H154.411C153.583 22.1025 152.905 22.3342 152.375 22.7976C151.846 23.2445 151.581 23.9396 151.581 24.8829V32.0823H149.024Z" fill="#474752"/>
<path d="M163.217 32.0823C162.472 32.0823 161.876 31.8589 161.429 31.412C160.999 30.9651 160.784 30.3693 160.784 29.6246V22.0032H157.408V19.8434H160.784V15.7968H163.341V19.8434H166.99V22.0032H163.341V29.1777C163.341 29.6742 163.573 29.9225 164.036 29.9225H166.593V32.0823H163.217Z" fill="#474752"/>
<rect x="22.5167" y="27.8378" width="18.1532" height="18.1532" transform="rotate(-45 22.5167 27.8378)" fill="#474752" stroke="#474752" stroke-width="1.72226"/>
<rect x="22.5167" y="20.8108" width="18.1532" height="18.1532" transform="rotate(-45 22.5167 20.8108)" fill="#474752" stroke="#474752" stroke-width="1.72226"/>
</svg>
