<svg width="200" height="200" viewBox="0 0 200 200" fill="none" xmlns="http://www.w3.org/2000/svg">
<g clip-path="url(#clip0_282_2)">
<mask id="mask0_282_2" style="mask-type:luminance" maskUnits="userSpaceOnUse" x="0" y="0" width="200" height="200">
<path d="M8.74228e-06 200L0 0L200 -8.74228e-06L200 200L8.74228e-06 200Z" fill="white"/>
</mask>
<g mask="url(#mask0_282_2)">
<path fill-rule="evenodd" clip-rule="evenodd" d="M5.24537e-06 120L3.49691e-06 80L110 80C121.046 80 130 71.0457 130 60C130 48.9543 121.046 40 110 40L1.74846e-06 40L0 0L100 -4.37114e-06C155.228 -6.78523e-06 200 44.7715 200 100C200 155.228 155.228 200 100 200L8.74228e-06 200L6.99382e-06 160L110 160C121.046 160 130 151.046 130 140C130 128.954 121.046 120 110 120L5.24537e-06 120Z" fill="#1C1C21"/>
</g>
</g>
<defs>
<clipPath id="clip0_282_2">
<rect width="200" height="200" fill="white" transform="matrix(4.37114e-08 1 1 -4.37114e-08 0 0)"/>
</clipPath>
</defs>
</svg>
