<svg width="355" height="50" viewBox="0 0 355 50" fill="none" xmlns="http://www.w3.org/2000/svg">
<path d="M89.365 39.2857C87.4783 39.2857 85.7015 38.9174 84.0345 38.1809C82.3804 37.4314 80.862 36.333 79.4794 34.8856C78.8849 34.2783 78.3422 33.5869 77.8511 32.8116C77.3601 32.0233 76.9401 31.1511 76.5912 30.1948C76.2423 29.2386 75.9709 28.1918 75.7771 27.0547C75.5832 25.9046 75.4863 24.6576 75.4863 23.3136C75.4863 22.3574 75.6608 21.3817 76.0097 20.3867C76.3715 19.3788 76.8626 18.416 77.4828 17.4986C78.1031 16.5681 78.8332 15.7088 79.6732 14.9205C80.5131 14.1193 81.4177 13.4345 82.3869 12.8659C83.705 12.0647 85.0166 11.5155 86.3218 11.2183C87.6398 10.9081 88.8546 10.7531 89.9659 10.7531C90.5215 10.7531 91.1031 10.7983 91.7104 10.8887C92.3178 10.9792 92.8928 11.0955 93.4355 11.2377C93.9912 11.3798 94.4952 11.5349 94.9475 11.7029C95.4127 11.8708 95.7745 12.0324 96.0329 12.1874C96.6532 12.5622 97.2864 13.0274 97.9325 13.5831C98.5787 14.1387 99.186 14.7396 99.7546 15.3857C100.323 16.0319 100.834 16.6974 101.286 17.3823C101.751 18.0542 102.113 18.6939 102.371 19.3012C102.811 20.3092 103.108 21.3171 103.263 22.3251C103.418 23.333 103.496 24.3797 103.496 25.4652C103.496 26.6282 103.373 27.7202 103.127 28.741C102.895 29.749 102.552 30.6988 102.1 31.5904C101.648 32.4821 101.092 33.322 100.433 34.1103C99.7869 34.8856 99.0503 35.6287 98.2233 36.3394C97.6159 36.8434 96.9957 37.2828 96.3625 37.6575C95.7293 38.0193 95.0508 38.323 94.3272 38.5685C93.6165 38.8141 92.854 38.995 92.0399 39.1113C91.2258 39.2276 90.3342 39.2857 89.365 39.2857ZM80.5454 25.3101C80.5454 25.9304 80.5778 26.5636 80.6424 27.2097C80.707 27.8429 80.8104 28.4761 80.9525 29.1093C81.0947 29.7296 81.2756 30.3305 81.4952 30.912C81.7278 31.4935 82.0057 32.0363 82.3287 32.5402C82.7423 33.2251 83.201 33.8971 83.705 34.5561C84.2219 35.2022 84.7905 35.7902 85.4107 36.32C86.0439 36.8369 86.7353 37.2569 87.4848 37.58C88.2472 37.8901 89.0742 38.0452 89.9659 38.0452C90.8058 38.0452 91.6199 37.8449 92.4082 37.4443C93.1965 37.0308 93.9266 36.4945 94.5986 35.8354C95.2705 35.1635 95.8714 34.4075 96.4012 33.5676C96.944 32.7276 97.3833 31.8747 97.7193 31.0089C97.7581 30.8797 97.8356 30.6471 97.9519 30.3111C98.0811 29.9622 98.2104 29.5422 98.3396 29.0512C98.4688 28.5601 98.5787 28.0045 98.6691 27.3842C98.7725 26.7639 98.8242 26.1049 98.8242 25.4071C98.8242 24.7868 98.7725 24.1148 98.6691 23.3912C98.5787 22.6675 98.4301 21.9245 98.2233 21.1621C98.0295 20.3867 97.7839 19.6114 97.4867 18.836C97.1895 18.0607 96.8406 17.3176 96.44 16.6069C96.0911 15.9996 95.684 15.4051 95.2188 14.8236C94.7536 14.2292 94.2238 13.7058 93.6294 13.2535C93.0479 12.7883 92.4018 12.4201 91.691 12.1487C90.9803 11.8644 90.2049 11.7222 89.365 11.7222C88.5638 11.7222 87.8014 11.8902 87.0777 12.2262C86.3541 12.5622 85.695 12.9822 85.1006 13.4861C84.5062 13.9772 83.9828 14.507 83.5305 15.0756C83.0912 15.6313 82.7358 16.1417 82.4644 16.6069C82.2577 16.9687 82.038 17.421 81.8054 17.9638C81.5857 18.5065 81.3789 19.1397 81.1851 19.8634C81.0042 20.587 80.8491 21.4076 80.7199 22.3251C80.6036 23.2296 80.5454 24.2247 80.5454 25.3101Z" fill="#474752"/>
<path d="M125.535 38.8205C125.509 38.8205 125.457 38.8205 125.38 38.8205C125.302 38.8334 125.212 38.8399 125.108 38.8399C125.018 38.8528 124.934 38.8593 124.856 38.8593C124.779 38.8722 124.727 38.8787 124.701 38.8787C124.559 38.8787 124.443 38.8334 124.352 38.743C124.275 38.6396 124.236 38.5168 124.236 38.3747C124.236 38.155 124.307 38.0129 124.449 37.9483C124.604 37.8836 124.811 37.8513 125.07 37.8513C125.25 37.8513 125.451 37.8643 125.67 37.8901C125.89 37.903 126.09 37.9095 126.271 37.9095C126.491 37.9095 126.678 37.8836 126.833 37.832C127.001 37.7803 127.092 37.651 127.105 37.4443V23.7595C127.092 23.6044 127.06 23.5269 127.008 23.5269C126.93 23.5269 126.775 23.7853 126.543 24.3022C126.452 24.496 126.342 24.7157 126.213 24.9612C126.084 25.2068 125.955 25.4523 125.826 25.6978C125.709 25.9433 125.593 26.1824 125.477 26.415C125.36 26.6347 125.27 26.8221 125.205 26.9771C124.482 28.5149 123.797 30.0333 123.151 31.5323C122.504 33.0184 121.781 34.5044 120.98 35.9905C120.941 36.0551 120.87 36.1843 120.766 36.3782C120.676 36.5591 120.579 36.7594 120.476 36.9791C120.372 37.1988 120.262 37.4249 120.146 37.6575C120.043 37.8772 119.959 38.0646 119.894 38.2196C119.817 38.3618 119.752 38.4522 119.7 38.491C119.649 38.5298 119.59 38.5491 119.526 38.5491C119.41 38.5491 119.28 38.4393 119.138 38.2196C119.074 38.1421 118.996 38.0323 118.906 37.8901C118.828 37.748 118.699 37.5089 118.518 37.1729C118.35 36.8369 118.117 36.3782 117.82 35.7967C117.523 35.2022 117.135 34.4204 116.657 33.4513C116.179 32.4692 115.585 31.2609 114.874 29.8265C114.176 28.3921 113.336 26.6735 112.354 24.6705C112.173 24.3733 112.018 24.0825 111.889 23.7982C111.76 23.501 111.559 23.2426 111.288 23.0229C111.172 23.9921 111.094 24.9354 111.055 25.8529C111.016 26.7575 110.971 27.6814 110.92 28.6247C110.855 29.7231 110.79 30.828 110.726 31.9393C110.674 33.0377 110.648 34.1361 110.648 35.2346C110.648 35.4413 110.655 35.661 110.668 35.8936C110.68 36.1262 110.719 36.3459 110.784 36.5526C110.848 36.7594 110.939 36.9468 111.055 37.1148C111.184 37.2698 111.359 37.3797 111.579 37.4443L113.808 37.9095C113.872 37.9353 113.911 37.9935 113.924 38.0839C113.937 38.1615 113.943 38.2261 113.943 38.2778C113.943 38.5621 113.814 38.7171 113.556 38.743H112.587C112.07 38.743 111.572 38.7301 111.094 38.7042C110.616 38.6654 110.131 38.6461 109.64 38.6461C109.11 38.6461 108.587 38.6654 108.07 38.7042C107.566 38.7301 107.049 38.743 106.519 38.743H106.016C105.951 38.7171 105.919 38.6525 105.919 38.5491C105.919 38.3165 106.035 38.1292 106.267 37.987C106.5 37.8449 106.771 37.7221 107.082 37.6187C107.405 37.5024 107.721 37.3926 108.031 37.2892C108.342 37.1729 108.574 37.0243 108.729 36.8434C108.871 36.6625 108.988 36.3459 109.078 35.8936C109.181 35.4413 109.259 34.9373 109.311 34.3817C109.337 34.0715 109.369 33.6839 109.408 33.2187C109.446 32.7535 109.492 32.1655 109.543 31.4547C109.608 30.744 109.679 29.8976 109.757 28.9155C109.834 27.9334 109.931 26.7704 110.047 25.4264C110.099 25.0517 110.17 24.5348 110.261 23.8758C110.364 23.2038 110.416 22.4285 110.416 21.5497C110.416 21.2784 110.273 21.0781 109.989 20.9488C109.718 20.8067 109.408 20.6968 109.059 20.6193C108.723 20.5289 108.413 20.4384 108.128 20.3479C107.857 20.2446 107.721 20.096 107.721 19.9021C107.721 19.7729 107.766 19.6695 107.857 19.592C107.96 19.5145 108.077 19.4628 108.206 19.4369C108.348 19.3981 108.49 19.3788 108.632 19.3788C108.774 19.3658 108.897 19.3594 109.001 19.3594C109.039 19.3594 109.136 19.3723 109.291 19.3981C109.459 19.424 109.634 19.4498 109.815 19.4757C110.009 19.5015 110.183 19.5274 110.338 19.5532C110.506 19.5791 110.609 19.592 110.648 19.592H113.071C113.33 19.6566 113.523 19.76 113.653 19.9021C113.795 20.0313 113.911 20.1993 114.002 20.4061C114.053 20.5353 114.111 20.6775 114.176 20.8325C114.254 20.9747 114.338 21.1491 114.428 21.3559C114.531 21.5497 114.648 21.7888 114.777 22.0731C114.919 22.3574 115.087 22.6934 115.281 23.081C115.591 23.7272 115.908 24.3991 116.231 25.0969C116.554 25.7947 116.877 26.4925 117.2 27.1904C117.523 27.8882 117.839 28.586 118.15 29.2838C118.46 29.9687 118.763 30.6277 119.061 31.2609C119.087 31.3255 119.145 31.4741 119.235 31.7067C119.326 31.9393 119.435 32.1978 119.565 32.4821C119.694 32.7535 119.823 33.0248 119.952 33.2962C120.094 33.5546 120.224 33.7485 120.34 33.8777C120.43 33.994 120.521 34.0522 120.611 34.0522C120.689 34.0522 120.779 33.9746 120.883 33.8195C121.102 33.3414 121.354 32.7922 121.639 32.1719C121.936 31.5387 122.246 30.8732 122.569 30.1754C122.892 29.4647 123.222 28.741 123.558 28.0045C123.907 27.2679 124.243 26.5507 124.566 25.8529C124.902 25.1422 125.218 24.4702 125.515 23.837C125.826 23.2038 126.103 22.6417 126.349 22.1506C126.401 22.0472 126.459 21.8663 126.523 21.6079C126.601 21.3365 126.685 21.0651 126.775 20.7938C126.879 20.5095 126.989 20.2639 127.105 20.0572C127.221 19.8375 127.344 19.7277 127.473 19.7277H131.641C131.731 19.7277 131.834 19.7083 131.951 19.6695C132.08 19.6178 132.177 19.592 132.242 19.592C132.397 19.592 132.577 19.6114 132.784 19.6501C132.991 19.676 133.127 19.7794 133.191 19.9603C133.23 20.0895 133.191 20.1864 133.075 20.251C132.959 20.3027 132.804 20.3479 132.61 20.3867C132.416 20.4126 132.196 20.4449 131.951 20.4836C131.718 20.5224 131.492 20.587 131.272 20.6775C131.066 20.7679 130.891 20.9036 130.749 21.0845C130.607 21.2654 130.536 21.511 130.536 21.8211V37.5412C130.536 37.6833 130.568 37.7738 130.633 37.8126C130.788 37.8513 130.982 37.8836 131.214 37.9095C131.447 37.9353 131.686 37.9676 131.931 38.0064C132.177 38.0323 132.422 38.071 132.668 38.1227C132.913 38.1615 133.127 38.2132 133.308 38.2778C133.372 38.3295 133.43 38.3941 133.482 38.4716C133.534 38.5362 133.56 38.5944 133.56 38.6461C133.56 38.7236 133.527 38.7882 133.463 38.8399C133.398 38.8916 133.321 38.9304 133.23 38.9562C133.153 38.995 133.062 39.0208 132.959 39.0337C132.868 39.0467 132.797 39.0531 132.745 39.0531C131.893 39.0531 131.04 39.0144 130.187 38.9368C129.347 38.8593 128.5 38.8205 127.648 38.8205H125.535Z" fill="#474752"/>
<path d="M142.922 29.0899L146.236 28.9543C146.753 28.9155 147.148 28.7927 147.419 28.586C147.69 28.3663 147.891 28.1078 148.02 27.8106C148.162 27.5005 148.265 27.1645 148.33 26.8027C148.407 26.4409 148.517 26.0855 148.659 25.7366C148.698 25.5815 148.763 25.504 148.853 25.504C149.034 25.504 149.125 25.5492 149.125 25.6397V26.415C149.125 26.9319 149.099 27.494 149.047 28.1014C149.008 28.6958 148.989 29.2063 148.989 29.6327C148.989 30.0462 149.021 30.4856 149.086 30.9508C149.163 31.416 149.202 31.8941 149.202 32.3852C149.202 32.4498 149.196 32.5532 149.183 32.6953C149.17 32.8374 149.15 32.9861 149.125 33.1411C149.099 33.2962 149.06 33.4319 149.008 33.5482C148.97 33.6645 148.911 33.7226 148.834 33.7226C148.692 33.7226 148.601 33.658 148.563 33.5288C148.537 33.3866 148.511 33.2574 148.485 33.1411C148.459 32.9861 148.414 32.7987 148.349 32.579C148.285 32.3593 148.214 32.1396 148.136 31.92C148.059 31.6874 147.987 31.4806 147.923 31.2997C147.858 31.1188 147.813 30.996 147.787 30.9314C147.671 30.6988 147.445 30.5179 147.109 30.3887C146.773 30.2465 146.392 30.1431 145.965 30.0785C145.552 30.001 145.119 29.9557 144.666 29.9428C144.227 29.917 143.839 29.9041 143.503 29.9041H142.922C142.715 29.9041 142.586 29.9493 142.534 30.0397C142.483 30.1173 142.457 30.2465 142.457 30.4274V37.2311C142.457 37.6187 142.579 37.8643 142.825 37.9676H148.718C148.976 37.9676 149.241 37.9676 149.512 37.9676C149.797 37.9547 149.984 37.9224 150.074 37.8707C150.268 37.819 150.43 37.7092 150.559 37.5412C150.701 37.3603 150.817 37.1923 150.908 37.0372C150.947 36.9726 151.018 36.8369 151.121 36.6302C151.237 36.4234 151.354 36.2037 151.47 35.9711C151.599 35.7256 151.716 35.4995 151.819 35.2927C151.935 35.0859 152.019 34.9503 152.071 34.8856C152.148 34.7306 152.278 34.653 152.459 34.653C152.575 34.653 152.659 34.6983 152.711 34.7887V37.6769C152.711 37.7932 152.698 37.903 152.672 38.0064C152.659 38.0969 152.64 38.2132 152.614 38.3553C152.562 38.5362 152.497 38.659 152.42 38.7236C152.342 38.7753 152.194 38.827 151.974 38.8787C150.669 38.8787 149.428 38.8722 148.252 38.8593C147.089 38.8464 145.907 38.8334 144.705 38.8205C143.503 38.8205 142.237 38.8141 140.906 38.8011C139.575 38.7882 138.089 38.7817 136.448 38.7817C136.228 38.7817 136.118 38.6719 136.118 38.4522C136.118 38.3101 136.189 38.2002 136.331 38.1227C136.474 38.0452 136.603 37.9935 136.719 37.9676C136.797 37.9676 136.919 37.9612 137.087 37.9483C137.268 37.9353 137.462 37.9289 137.669 37.9289C137.876 37.9159 138.076 37.903 138.27 37.8901C138.464 37.8772 138.632 37.8707 138.774 37.8707C139.084 37.8707 139.239 37.6252 139.239 37.1341V22.829C139.239 22.6094 139.213 22.338 139.161 22.0149C139.123 21.6919 139.039 21.4205 138.909 21.2008C138.819 21.1362 138.774 21.1039 138.774 21.1039L136.06 20.8325C135.815 20.8325 135.692 20.7098 135.692 20.4642C135.692 20.3996 135.705 20.3221 135.731 20.2316C135.756 20.1283 135.84 20.0766 135.983 20.0766H139.161C140.402 20.0766 141.623 20.0701 142.825 20.0572C144.027 20.0443 145.132 20.0378 146.14 20.0378H148.892C149.099 20.0378 149.312 20.0443 149.532 20.0572C149.764 20.0572 149.984 20.0637 150.191 20.0766C150.397 20.0766 150.585 20.083 150.753 20.096C150.921 20.096 151.05 20.096 151.141 20.096C151.231 20.1089 151.302 20.1541 151.354 20.2316C151.405 20.3092 151.438 20.4061 151.451 20.5224C151.477 20.6258 151.489 20.7356 151.489 20.8519C151.502 20.9553 151.509 21.0393 151.509 21.1039V24.2634C151.509 24.3797 151.464 24.4379 151.373 24.4379C151.231 24.4379 151.121 24.3474 151.044 24.1665C150.979 23.9727 150.876 23.7465 150.733 23.4881C150.617 23.2038 150.475 22.9195 150.307 22.6352C150.139 22.3509 150.016 22.1312 149.939 21.9762C149.822 21.7565 149.642 21.5885 149.396 21.4722C149.163 21.343 148.898 21.2461 148.601 21.1814C148.304 21.1039 148 21.0458 147.69 21.007C147.38 20.9682 147.109 20.923 146.876 20.8713C146.799 20.8713 146.598 20.8648 146.275 20.8519C145.952 20.839 145.584 20.8325 145.17 20.8325C144.77 20.8196 144.369 20.8067 143.969 20.7938C143.581 20.7808 143.277 20.7744 143.058 20.7744C142.786 20.7744 142.618 20.8519 142.554 21.007C142.489 21.1621 142.457 21.3947 142.457 21.7048V28.6247C142.457 28.741 142.495 28.8509 142.573 28.9543C142.663 29.0447 142.78 29.0899 142.922 29.0899Z" fill="#474752"/>
<path d="M155.386 29.3613C155.386 28.6506 155.47 27.9592 155.638 27.2873C155.818 26.6024 156.058 25.9627 156.355 25.3683C156.665 24.7609 157.027 24.2053 157.44 23.7013C157.854 23.1973 158.3 22.758 158.778 22.3832C159.217 22.0472 159.715 21.7371 160.27 21.4528C160.826 21.1556 161.42 20.8971 162.053 20.6775C162.7 20.4578 163.378 20.2833 164.089 20.1541C164.8 20.0249 165.523 19.9603 166.26 19.9603C167.138 19.9603 167.959 20.0378 168.721 20.1929C169.497 20.3479 170.285 20.6193 171.086 21.007C171.228 21.0974 171.364 21.1427 171.493 21.1427C171.61 21.1039 171.719 21.0134 171.823 20.8713L172.152 20.5999C172.243 20.5353 172.32 20.503 172.385 20.503C172.695 20.503 172.85 20.6968 172.85 21.0845V22.7515C172.85 22.9324 172.882 23.1263 172.947 23.333C173.025 23.5269 173.076 23.7336 173.102 23.9533C173.115 24.005 173.122 24.1213 173.122 24.3022V25.4071C173.122 25.4846 173.07 25.5427 172.966 25.5815C172.863 25.6203 172.786 25.6397 172.734 25.6397C172.45 25.6397 172.288 25.5492 172.249 25.3683C172.004 24.7222 171.707 24.1213 171.358 23.5656C171.009 23.01 170.602 22.5254 170.136 22.1119C169.671 21.6983 169.135 21.3753 168.528 21.1427C167.933 20.8971 167.261 20.7744 166.512 20.7744C165.581 20.7744 164.78 20.9036 164.108 21.1621C163.449 21.4076 162.809 21.7953 162.189 22.3251C161.982 22.4801 161.795 22.6352 161.627 22.7903C161.472 22.9324 161.323 23.094 161.181 23.2749C161.039 23.4558 160.897 23.6561 160.755 23.8758C160.626 24.0954 160.49 24.3603 160.348 24.6705C159.999 25.3425 159.734 26.0661 159.553 26.8415C159.372 27.6039 159.282 28.3211 159.282 28.993C159.282 29.4841 159.288 29.9299 159.301 30.3305C159.327 30.7311 159.379 31.1317 159.456 31.5323C159.534 31.92 159.656 32.327 159.824 32.7535C159.992 33.167 160.225 33.6451 160.522 34.1878C161.104 35.3379 161.879 36.249 162.848 36.9209C163.817 37.58 164.909 37.9095 166.124 37.9095C166.512 37.9095 166.854 37.8966 167.151 37.8707C167.449 37.832 167.72 37.7673 167.965 37.6769C168.211 37.5864 168.444 37.4572 168.663 37.2892C168.896 37.1083 169.141 36.8692 169.4 36.572C169.426 36.5462 169.464 36.4816 169.516 36.3782C169.581 36.2748 169.613 36.1908 169.613 36.1262L169.807 31.5129C169.807 31.3578 169.742 31.2157 169.613 31.0865C169.484 30.9443 169.348 30.8409 169.206 30.7763C169.09 30.7376 168.883 30.6859 168.586 30.6213C168.301 30.5566 168.011 30.492 167.714 30.4274C167.429 30.3499 167.184 30.2788 166.977 30.2142C166.77 30.1367 166.699 30.0656 166.764 30.001C166.764 29.8588 166.809 29.7878 166.899 29.7878H174.769C175.092 29.7878 175.286 29.8459 175.351 29.9622C175.428 30.0785 175.467 30.169 175.467 30.2336C175.467 30.3499 175.396 30.4339 175.254 30.4856C175.125 30.5373 174.957 30.5825 174.75 30.6213C174.556 30.6471 174.343 30.6729 174.11 30.6988C173.89 30.7117 173.697 30.7376 173.529 30.7763C173.154 30.8409 172.966 30.996 172.966 31.2415V36.1068C172.966 36.1973 173.044 36.2425 173.199 36.2425C173.341 36.2425 173.483 36.2102 173.626 36.1456C173.781 36.068 173.961 36.0293 174.168 36.0293H174.401C174.504 36.0293 174.582 36.0551 174.633 36.1068C174.776 36.2102 174.847 36.2942 174.847 36.3588C174.847 36.488 174.776 36.5849 174.633 36.6496C174.504 36.7142 174.381 36.7788 174.265 36.8434C173.425 37.1535 172.611 37.4314 171.823 37.6769C171.047 37.9095 170.279 38.1098 169.516 38.2778C168.767 38.4458 168.017 38.575 167.268 38.6654C166.518 38.743 165.756 38.7817 164.98 38.7817C164.502 38.7817 164.005 38.743 163.488 38.6654C162.984 38.575 162.486 38.4587 161.995 38.3165C161.504 38.1744 161.033 38.0064 160.58 37.8126C160.141 37.6187 159.74 37.4055 159.379 37.1729C158.888 36.8369 158.403 36.3846 157.925 35.8161C157.46 35.2475 157.033 34.6143 156.645 33.9165C156.271 33.2187 155.967 32.4821 155.734 31.7067C155.502 30.9185 155.386 30.1367 155.386 29.3613Z" fill="#474752"/>
<path d="M176.126 38.239C176.126 38.1873 176.165 38.1098 176.242 38.0064C176.307 37.903 176.41 37.8513 176.552 37.8513C176.759 37.8513 176.979 37.819 177.211 37.7544C177.457 37.6898 177.69 37.5929 177.909 37.4637C178.142 37.3215 178.355 37.1471 178.549 36.9403C178.756 36.7206 178.93 36.4622 179.072 36.165L184.209 23.9921C184.222 23.9662 184.248 23.9081 184.286 23.8176C184.338 23.7142 184.364 23.6302 184.364 23.5656C184.364 23.4235 184.332 23.2813 184.267 23.1392C184.202 22.997 184.125 22.8678 184.035 22.7515C183.957 22.6223 183.886 22.5124 183.821 22.422C183.757 22.3186 183.724 22.2282 183.724 22.1506C183.724 22.0214 183.77 21.918 183.86 21.8405C183.951 21.7629 184.054 21.7048 184.17 21.666C184.299 21.6143 184.435 21.582 184.577 21.5691C184.719 21.5562 184.842 21.5368 184.946 21.511C185.062 21.4593 185.191 21.3753 185.333 21.259C185.475 21.1298 185.592 21.0264 185.682 20.9488C185.721 20.8842 185.753 20.8002 185.779 20.6968C185.805 20.5935 185.831 20.4966 185.857 20.4061C185.895 20.3156 185.941 20.2381 185.992 20.1735C186.057 20.1089 186.141 20.0766 186.244 20.0766C186.503 20.0766 186.658 20.1864 186.709 20.4061L192.253 36.9985C192.331 37.244 192.415 37.4378 192.505 37.58C192.609 37.7092 192.731 37.8061 192.873 37.8707C193.016 37.9353 193.171 37.9741 193.339 37.987C193.52 37.9999 193.726 38.0064 193.959 38.0064H194.657C194.773 38.0064 194.863 38.0193 194.928 38.0452C194.993 38.0452 195.064 38.0904 195.141 38.1809C195.232 38.2713 195.277 38.3489 195.277 38.4135C195.277 38.6202 195.161 38.7301 194.928 38.743C194.902 38.7688 194.812 38.7817 194.657 38.7817H193.552C193.177 38.7817 192.744 38.7624 192.253 38.7236C191.762 38.6719 191.271 38.6461 190.78 38.6461C189.979 38.6461 189.203 38.6719 188.454 38.7236C187.704 38.7624 187.039 38.7817 186.457 38.7817C186.393 38.7817 186.322 38.7688 186.244 38.743C186.18 38.7171 186.147 38.6654 186.147 38.5879C186.147 38.5104 186.18 38.4328 186.244 38.3553C186.309 38.2778 186.386 38.2067 186.477 38.1421C186.567 38.0646 186.664 38.0064 186.768 37.9676C186.884 37.9289 186.987 37.9095 187.078 37.9095C187.207 37.9095 187.336 37.9159 187.465 37.9289C187.595 37.9418 187.737 37.9483 187.892 37.9483C188.305 37.9483 188.641 37.903 188.9 37.8126C189.119 37.735 189.229 37.58 189.229 37.3474C189.229 37.3215 189.223 37.2892 189.21 37.2504C189.197 37.2117 189.184 37.1535 189.171 37.076C189.119 36.9597 189.035 36.7465 188.919 36.4363C188.803 36.1133 188.68 35.7644 188.551 35.3896C188.422 35.0149 188.292 34.653 188.163 34.3041C188.047 33.9552 187.956 33.6839 187.892 33.49C187.84 33.3737 187.782 33.2639 187.717 33.1605C187.666 33.0442 187.569 32.9861 187.427 32.9861H181.98C181.657 32.9861 181.45 33.1411 181.36 33.4513L180.584 36.2619C180.558 36.3523 180.539 36.4299 180.526 36.4945C180.513 36.5591 180.507 36.6496 180.507 36.7659C180.507 36.9726 180.52 37.1406 180.545 37.2698C180.584 37.3861 180.636 37.483 180.701 37.5606C180.778 37.6381 180.875 37.6963 180.991 37.735C181.12 37.7609 181.282 37.7867 181.476 37.8126C181.54 37.8126 181.644 37.8255 181.786 37.8513C181.941 37.8643 182.103 37.8836 182.271 37.9095C182.439 37.9353 182.594 37.9612 182.736 37.987C182.891 37.9999 183.001 38.0064 183.065 38.0064C183.13 38.0323 183.22 38.0969 183.337 38.2002C183.466 38.2907 183.531 38.3941 183.531 38.5104C183.531 38.575 183.505 38.6396 183.453 38.7042C183.401 38.7559 183.304 38.7817 183.162 38.7817H182.561C182.355 38.7817 182.07 38.7753 181.708 38.7624C181.36 38.7494 181.004 38.743 180.642 38.743C180.293 38.743 179.873 38.7494 179.382 38.7624C178.891 38.7753 178.387 38.7817 177.871 38.7817C177.806 38.7817 177.677 38.7753 177.483 38.7624C177.289 38.7365 177.089 38.7042 176.882 38.6654C176.688 38.6138 176.514 38.5556 176.359 38.491C176.204 38.4135 176.126 38.3295 176.126 38.239ZM182.116 31.2609C182.103 31.2868 182.096 31.3578 182.096 31.4741V31.5711C182.096 31.7132 182.135 31.836 182.212 31.9393C182.303 32.0298 182.419 32.075 182.561 32.075C183.35 32.075 184.093 32.1073 184.79 32.1719C185.501 32.2236 186.186 32.2495 186.845 32.2495C186.987 32.2495 187.097 32.2107 187.175 32.1332C187.252 32.0427 187.291 31.9587 187.291 31.8812V31.668C187.291 31.6421 187.284 31.6163 187.272 31.5904C187.246 31.5517 187.226 31.4871 187.213 31.3966L185.139 25.504C185.036 25.2326 184.913 25.0969 184.771 25.0969C184.706 25.0969 184.635 25.1228 184.558 25.1745C184.48 25.2262 184.429 25.2778 184.403 25.3295L182.116 31.2609Z" fill="#474752"/>
<path d="M209.505 38.6073C208.807 38.6073 208.141 38.6396 207.508 38.7042C206.875 38.7559 206.177 38.7817 205.415 38.7817H204.639C204.523 38.7817 204.439 38.7107 204.387 38.5685C204.336 38.4135 204.31 38.2972 204.31 38.2196C204.31 38.0904 204.323 37.9806 204.349 37.8901C204.387 37.7867 204.452 37.7286 204.542 37.7157C204.684 37.6769 204.852 37.6446 205.046 37.6187C205.24 37.5929 205.44 37.5735 205.647 37.5606C205.854 37.5347 206.048 37.5218 206.229 37.5218C206.423 37.5089 206.591 37.5024 206.733 37.5024C207.043 37.5024 207.34 37.4314 207.624 37.2892C207.922 37.1471 208.161 36.9726 208.342 36.7659C208.471 36.5979 208.581 36.4363 208.671 36.2813C208.762 36.1133 208.839 35.8871 208.904 35.6028C208.981 35.3185 209.039 34.9503 209.078 34.498C209.13 34.0457 209.181 33.4513 209.233 32.7147L210.144 16.0836C210.144 15.683 210.099 15.2824 210.009 14.8818C209.918 14.4683 209.769 14.087 209.563 13.7381C209.369 13.3763 209.11 13.0662 208.787 12.8077C208.464 12.5493 208.07 12.3684 207.605 12.265C207.566 12.2521 207.463 12.2391 207.295 12.2262C207.127 12.2004 206.946 12.1745 206.752 12.1487C206.558 12.1228 206.377 12.1035 206.209 12.0905C206.041 12.0647 205.932 12.0518 205.88 12.0518C205.621 12.0001 205.415 11.9484 205.26 11.8967C205.117 11.845 205.046 11.6835 205.046 11.4121C205.046 11.2958 205.053 11.186 205.066 11.0826C205.079 10.9663 205.13 10.9081 205.221 10.9081H206.016C206.351 10.9081 206.662 10.9211 206.946 10.9469C207.243 10.9727 207.54 11.005 207.838 11.0438C208.135 11.0826 208.445 11.1149 208.768 11.1407C209.104 11.1666 209.472 11.1795 209.873 11.1795H211.714C211.934 11.1795 212.134 11.1666 212.315 11.1407C212.509 11.102 212.761 11.0826 213.071 11.0826C213.304 11.0826 213.549 11.1149 213.808 11.1795C214.066 11.2312 214.254 11.3475 214.37 11.5284C214.59 11.7869 214.777 12.0776 214.932 12.4007C215.087 12.7108 215.223 13.0403 215.339 13.3892L221.852 30.5243C221.904 30.6536 221.955 30.7634 222.007 30.8539C222.059 30.9314 222.117 30.9702 222.181 30.9702C222.272 30.9702 222.343 30.9185 222.395 30.8151C222.446 30.7117 222.485 30.6148 222.511 30.5243L229.838 11.3152C229.915 11.173 230.025 11.0826 230.167 11.0438C230.323 11.005 230.491 10.9857 230.671 10.9857C231.318 10.9857 231.938 10.9727 232.532 10.9469C233.14 10.9211 233.741 10.8887 234.335 10.85C234.942 10.8112 235.55 10.7789 236.157 10.7531C236.777 10.7272 237.43 10.7143 238.115 10.7143C238.154 10.7143 238.205 10.7143 238.27 10.7143C238.347 10.7143 238.418 10.7272 238.483 10.7531C238.561 10.766 238.625 10.7918 238.677 10.8306C238.729 10.8694 238.754 10.9211 238.754 10.9857C238.754 11.1666 238.677 11.354 238.522 11.5478C238.367 11.7287 238.173 11.8192 237.94 11.8192C237.294 11.8192 236.758 11.8967 236.331 12.0518C235.905 12.2068 235.472 12.5234 235.033 13.0016C234.839 13.1954 234.684 13.4151 234.568 13.6606C234.451 13.9061 234.354 14.171 234.277 14.4553C234.212 14.7267 234.167 15.011 234.141 15.3082C234.128 15.5925 234.122 15.8703 234.122 16.1417L234.432 36.8434C234.522 37.1148 234.742 37.3021 235.091 37.4055C235.44 37.5089 235.827 37.58 236.254 37.6187C236.68 37.6446 237.094 37.6704 237.494 37.6963C237.908 37.7092 238.225 37.7673 238.444 37.8707C238.599 37.9353 238.69 38.0193 238.716 38.1227C238.741 38.2132 238.754 38.2972 238.754 38.3747C238.754 38.5815 238.645 38.7107 238.425 38.7624C238.218 38.8011 237.934 38.8205 237.572 38.8205C237.158 38.8205 236.771 38.8141 236.409 38.8011C236.047 38.7882 235.685 38.7817 235.324 38.7817C234.975 38.7688 234.606 38.7559 234.219 38.743C233.831 38.7301 233.398 38.7236 232.92 38.7236H229.954C229.579 38.7236 229.218 38.7301 228.869 38.743C228.52 38.743 228.171 38.7559 227.822 38.7817C227.409 38.8205 226.995 38.8399 226.581 38.8399C226.478 38.8399 226.368 38.8334 226.252 38.8205C226.149 38.8205 226.045 38.8011 225.942 38.7624C225.851 38.7236 225.774 38.6654 225.709 38.5879C225.658 38.4975 225.632 38.3812 225.632 38.239C225.632 37.9806 225.793 37.8126 226.116 37.735C226.439 37.6446 226.827 37.5993 227.279 37.5993H228.093C228.365 37.5993 228.617 37.5929 228.849 37.58C229.095 37.567 229.308 37.5283 229.489 37.4637C229.67 37.3991 229.812 37.3086 229.915 37.1923C230.032 37.0631 230.09 36.8886 230.09 36.6689L229.838 16.0836C229.838 16.0189 229.825 15.9285 229.799 15.8122C229.773 15.6959 229.728 15.6377 229.663 15.6377C229.573 15.6377 229.502 15.6571 229.45 15.6959C229.412 15.7217 229.379 15.7476 229.353 15.7734L220.67 38.3747C220.618 38.5815 220.54 38.6848 220.437 38.6848C220.334 38.6848 220.243 38.5815 220.166 38.3747L211.52 15.5796C211.482 15.4245 211.404 15.347 211.288 15.347C211.236 15.347 211.191 15.3599 211.152 15.3857C211.126 15.4116 211.113 15.4762 211.113 15.5796L210.609 34.0909C210.609 34.246 210.616 34.4527 210.629 34.7112C210.655 34.9567 210.687 35.2152 210.726 35.4865C210.777 35.7579 210.836 36.0228 210.9 36.2813C210.978 36.5397 211.075 36.7594 211.191 36.9403C211.359 37.2117 211.611 37.412 211.947 37.5412C212.296 37.6575 212.664 37.7415 213.052 37.7932C213.452 37.832 213.846 37.8578 214.234 37.8707C214.635 37.8836 214.971 37.9095 215.242 37.9483C215.397 37.9612 215.501 38.0193 215.552 38.1227C215.617 38.2261 215.649 38.3359 215.649 38.4522C215.649 38.5298 215.604 38.5944 215.513 38.6461C215.436 38.6978 215.333 38.743 215.203 38.7817C215.087 38.8076 214.951 38.8205 214.796 38.8205C214.641 38.8334 214.499 38.8399 214.37 38.8399C213.892 38.8399 213.446 38.827 213.032 38.8011C212.619 38.7753 212.218 38.7494 211.831 38.7236C211.443 38.6978 211.062 38.6719 210.687 38.6461C210.312 38.6202 209.918 38.6073 209.505 38.6073Z" fill="#474752"/>
<path d="M247.574 21.2784V36.4751C247.574 36.5397 247.58 36.6366 247.593 36.7659C247.606 36.8951 247.626 37.0308 247.651 37.1729C247.69 37.3021 247.742 37.4184 247.807 37.5218C247.871 37.6252 247.962 37.6769 248.078 37.6769H250.21C250.352 37.6769 250.469 37.735 250.559 37.8513C250.662 37.9676 250.714 38.0969 250.714 38.239C250.714 38.3553 250.656 38.4781 250.54 38.6073C250.423 38.7236 250.307 38.7817 250.191 38.7817H244.104C243.846 38.7817 243.587 38.7882 243.329 38.8011C243.07 38.827 242.786 38.8399 242.476 38.8399C242.295 38.8399 242.121 38.8334 241.953 38.8205C241.785 38.8076 241.63 38.7817 241.487 38.743C241.41 38.6913 241.371 38.5685 241.371 38.3747C241.371 38.1033 241.436 37.9483 241.565 37.9095C241.888 37.8578 242.166 37.819 242.399 37.7932C242.631 37.7544 242.877 37.735 243.135 37.735C243.342 37.735 243.484 37.735 243.562 37.735C243.652 37.7221 243.755 37.7027 243.872 37.6769C244.053 37.5993 244.143 37.328 244.143 36.8628V21.414C244.143 21.259 244.066 21.1233 243.91 21.007C243.768 20.8778 243.626 20.8132 243.484 20.8132C243.187 20.8132 242.954 20.839 242.786 20.8907C242.631 20.9295 242.424 20.9488 242.166 20.9488C241.998 20.9488 241.83 20.9359 241.662 20.9101C241.494 20.8713 241.326 20.8261 241.158 20.7744C241.068 20.7356 241.022 20.6581 241.022 20.5418C240.984 20.3738 240.996 20.2381 241.061 20.1347C241.139 20.0313 241.242 19.9538 241.371 19.9021C241.5 19.8375 241.643 19.7987 241.798 19.7858C241.966 19.7729 242.121 19.7664 242.263 19.7664H249.241C249.577 19.7664 249.79 19.7664 249.881 19.7664C249.971 19.7664 250.029 19.7794 250.055 19.8052C250.301 19.844 250.423 19.9861 250.423 20.2316C250.423 20.503 250.275 20.6775 249.978 20.755C249.68 20.8325 249.351 20.8778 248.989 20.8907C248.64 20.9036 248.317 20.9295 248.02 20.9682C247.723 20.9941 247.574 21.0974 247.574 21.2784Z" fill="#474752"/>
<path d="M253.35 38.4135C253.35 38.1162 253.479 37.9483 253.738 37.9095H254.475C254.707 37.9095 254.92 37.9095 255.114 37.9095C255.308 37.8966 255.476 37.8707 255.618 37.832C255.76 37.7932 255.87 37.7286 255.948 37.6381C256.038 37.5477 256.083 37.4249 256.083 37.2698V21.6466C256.083 21.5045 256.025 21.3882 255.909 21.2977C255.793 21.1944 255.663 21.1427 255.521 21.1427H253.777C253.712 21.1427 253.635 21.1362 253.544 21.1233C253.454 21.1104 253.35 21.0974 253.234 21.0845C253.169 21.0587 253.111 21.007 253.06 20.9295C253.021 20.8519 253.001 20.7808 253.001 20.7162C253.001 20.4707 253.156 20.3479 253.467 20.3479H258.235C258.274 20.3479 258.371 20.3415 258.526 20.3286C258.694 20.3156 258.868 20.3027 259.049 20.2898C259.23 20.2769 259.391 20.2639 259.534 20.251C259.676 20.2381 259.76 20.2316 259.786 20.2316C259.967 20.2187 260.167 20.2058 260.387 20.1929C260.619 20.18 260.806 20.1735 260.949 20.1735C260.987 20.1735 261.058 20.18 261.162 20.1929C261.265 20.1929 261.375 20.1993 261.491 20.2123C261.608 20.2123 261.718 20.2187 261.821 20.2316C261.937 20.2316 262.015 20.2316 262.053 20.2316C262.234 20.2704 262.325 20.3738 262.325 20.5418C262.325 20.6839 262.28 20.8261 262.189 20.9682C262.112 21.0587 261.989 21.1039 261.821 21.1039H259.689C259.598 21.1039 259.527 21.1556 259.475 21.259C259.424 21.3494 259.379 21.4657 259.34 21.6079C259.314 21.7371 259.295 21.8728 259.282 22.0149C259.282 22.1571 259.282 22.2798 259.282 22.3832C259.282 23.0552 259.314 23.7272 259.379 24.3991C259.443 25.0582 259.475 25.8141 259.475 26.667V37.3667C259.475 37.4572 259.495 37.567 259.534 37.6963C259.585 37.8126 259.669 37.8707 259.786 37.8707H265.988C266.337 37.8707 266.667 37.7157 266.977 37.4055C267.287 37.0954 267.571 36.7335 267.83 36.32C268.101 35.9065 268.334 35.4995 268.528 35.0989C268.734 34.6853 268.902 34.3817 269.032 34.1878C269.109 34.0974 269.187 34.0522 269.264 34.0522C269.329 34.0522 269.387 34.1103 269.439 34.2266C269.49 34.4075 269.516 34.569 269.516 34.7112C269.529 34.8404 269.536 35.0343 269.536 35.2927C269.536 35.3961 269.516 35.5511 269.477 35.7579C269.452 35.9517 269.413 36.1585 269.361 36.3782C269.322 36.5979 269.284 36.8111 269.245 37.0178C269.219 37.2117 269.206 37.3667 269.206 37.483C269.206 37.5477 269.206 37.6381 269.206 37.7544C269.206 37.8578 269.2 37.9676 269.187 38.0839C269.187 38.2002 269.18 38.3101 269.167 38.4135C269.154 38.5039 269.135 38.5685 269.109 38.6073C268.928 38.7236 268.767 38.7817 268.625 38.7817C267.009 38.7817 265.284 38.7688 263.449 38.743C261.614 38.7042 259.786 38.6848 257.964 38.6848C257.641 38.6848 257.305 38.6913 256.956 38.7042C256.607 38.7171 256.271 38.7365 255.948 38.7624C255.625 38.7753 255.314 38.7882 255.017 38.8011C254.733 38.8141 254.487 38.8205 254.281 38.8205C254.009 38.8205 253.783 38.8076 253.602 38.7817C253.434 38.743 253.35 38.6202 253.35 38.4135Z" fill="#474752"/>
<path d="M271.532 38.4135C271.532 38.1162 271.661 37.9483 271.92 37.9095H272.656C272.889 37.9095 273.102 37.9095 273.296 37.9095C273.49 37.8966 273.658 37.8707 273.8 37.832C273.942 37.7932 274.052 37.7286 274.129 37.6381C274.22 37.5477 274.265 37.4249 274.265 37.2698V21.6466C274.265 21.5045 274.207 21.3882 274.091 21.2977C273.974 21.1944 273.845 21.1427 273.703 21.1427H271.959C271.894 21.1427 271.816 21.1362 271.726 21.1233C271.635 21.1104 271.532 21.0974 271.416 21.0845C271.351 21.0587 271.293 21.007 271.241 20.9295C271.203 20.8519 271.183 20.7808 271.183 20.7162C271.183 20.4707 271.338 20.3479 271.648 20.3479H276.417C276.456 20.3479 276.552 20.3415 276.708 20.3286C276.875 20.3156 277.05 20.3027 277.231 20.2898C277.412 20.2769 277.573 20.2639 277.715 20.251C277.858 20.2381 277.942 20.2316 277.967 20.2316C278.148 20.2187 278.349 20.2058 278.568 20.1929C278.801 20.18 278.988 20.1735 279.13 20.1735C279.169 20.1735 279.24 20.18 279.344 20.1929C279.447 20.1929 279.557 20.1993 279.673 20.2123C279.789 20.2123 279.899 20.2187 280.003 20.2316C280.119 20.2316 280.197 20.2316 280.235 20.2316C280.416 20.2704 280.507 20.3738 280.507 20.5418C280.507 20.6839 280.461 20.8261 280.371 20.9682C280.293 21.0587 280.171 21.1039 280.003 21.1039H277.871C277.78 21.1039 277.709 21.1556 277.657 21.259C277.606 21.3494 277.56 21.4657 277.522 21.6079C277.496 21.7371 277.476 21.8728 277.463 22.0149C277.463 22.1571 277.463 22.2798 277.463 22.3832C277.463 23.0552 277.496 23.7272 277.56 24.3991C277.625 25.0582 277.657 25.8141 277.657 26.667V37.3667C277.657 37.4572 277.677 37.567 277.715 37.6963C277.767 37.8126 277.851 37.8707 277.967 37.8707H284.17C284.519 37.8707 284.849 37.7157 285.159 37.4055C285.469 37.0954 285.753 36.7335 286.012 36.32C286.283 35.9065 286.516 35.4995 286.709 35.0989C286.916 34.6853 287.084 34.3817 287.213 34.1878C287.291 34.0974 287.368 34.0522 287.446 34.0522C287.511 34.0522 287.569 34.1103 287.62 34.2266C287.672 34.4075 287.698 34.569 287.698 34.7112C287.711 34.8404 287.717 35.0343 287.717 35.2927C287.717 35.3961 287.698 35.5511 287.659 35.7579C287.633 35.9517 287.595 36.1585 287.543 36.3782C287.504 36.5979 287.465 36.8111 287.427 37.0178C287.401 37.2117 287.388 37.3667 287.388 37.483C287.388 37.5477 287.388 37.6381 287.388 37.7544C287.388 37.8578 287.381 37.9676 287.368 38.0839C287.368 38.2002 287.362 38.3101 287.349 38.4135C287.336 38.5039 287.317 38.5685 287.291 38.6073C287.11 38.7236 286.949 38.7817 286.806 38.7817C285.191 38.7817 283.466 38.7688 281.631 38.743C279.796 38.7042 277.967 38.6848 276.145 38.6848C275.822 38.6848 275.486 38.6913 275.137 38.7042C274.789 38.7171 274.453 38.7365 274.129 38.7624C273.806 38.7753 273.496 38.7882 273.199 38.8011C272.915 38.8141 272.669 38.8205 272.462 38.8205C272.191 38.8205 271.965 38.8076 271.784 38.7817C271.616 38.743 271.532 38.6202 271.532 38.4135Z" fill="#474752"/>
<path d="M295.955 21.2784V36.4751C295.955 36.5397 295.962 36.6366 295.975 36.7659C295.988 36.8951 296.007 37.0308 296.033 37.1729C296.072 37.3021 296.123 37.4184 296.188 37.5218C296.253 37.6252 296.343 37.6769 296.459 37.6769H298.592C298.734 37.6769 298.85 37.735 298.94 37.8513C299.044 37.9676 299.096 38.0969 299.096 38.239C299.096 38.3553 299.037 38.4781 298.921 38.6073C298.805 38.7236 298.689 38.7817 298.572 38.7817H292.486C292.227 38.7817 291.969 38.7882 291.71 38.8011C291.452 38.827 291.168 38.8399 290.858 38.8399C290.677 38.8399 290.502 38.8334 290.334 38.8205C290.166 38.8076 290.011 38.7817 289.869 38.743C289.791 38.6913 289.753 38.5685 289.753 38.3747C289.753 38.1033 289.817 37.9483 289.947 37.9095C290.27 37.8578 290.547 37.819 290.78 37.7932C291.013 37.7544 291.258 37.735 291.517 37.735C291.723 37.735 291.865 37.735 291.943 37.735C292.033 37.7221 292.137 37.7027 292.253 37.6769C292.434 37.5993 292.525 37.328 292.525 36.8628V21.414C292.525 21.259 292.447 21.1233 292.292 21.007C292.15 20.8778 292.008 20.8132 291.865 20.8132C291.568 20.8132 291.336 20.839 291.168 20.8907C291.013 20.9295 290.806 20.9488 290.547 20.9488C290.379 20.9488 290.211 20.9359 290.043 20.9101C289.875 20.8713 289.707 20.8261 289.539 20.7744C289.449 20.7356 289.404 20.6581 289.404 20.5418C289.365 20.3738 289.378 20.2381 289.443 20.1347C289.52 20.0313 289.623 19.9538 289.753 19.9021C289.882 19.8375 290.024 19.7987 290.179 19.7858C290.347 19.7729 290.502 19.7664 290.644 19.7664H297.622C297.958 19.7664 298.172 19.7664 298.262 19.7664C298.353 19.7664 298.411 19.7794 298.437 19.8052C298.682 19.844 298.805 19.9861 298.805 20.2316C298.805 20.503 298.656 20.6775 298.359 20.755C298.062 20.8325 297.732 20.8778 297.37 20.8907C297.022 20.9036 296.698 20.9295 296.401 20.9682C296.104 20.9941 295.955 21.0974 295.955 21.2784Z" fill="#474752"/>
<path d="M301.499 29.6521C301.499 28.8897 301.57 28.1983 301.712 27.578C301.854 26.9448 302.068 26.3569 302.352 25.8141C302.636 25.2714 302.985 24.7609 303.399 24.2828C303.825 23.7918 304.31 23.3136 304.852 22.8484C305.279 22.4866 305.738 22.1894 306.229 21.9568C306.72 21.7242 307.224 21.5433 307.741 21.414C308.27 21.2719 308.813 21.175 309.369 21.1233C309.925 21.0716 310.474 21.0458 311.016 21.0458C311.482 21.0458 311.973 21.1168 312.49 21.259C313.019 21.4011 313.53 21.5885 314.021 21.8211C314.512 22.0408 314.964 22.2863 315.378 22.5577C315.791 22.8161 316.134 23.0681 316.405 23.3136C317.348 24.2053 318.079 25.1745 318.595 26.2212C319.112 27.255 319.371 28.3921 319.371 29.6327C319.371 30.3047 319.319 30.9249 319.216 31.4935C319.125 32.0492 318.983 32.5725 318.789 33.0636C318.608 33.5546 318.376 34.0198 318.091 34.4592C317.82 34.8986 317.504 35.3315 317.142 35.7579C316.806 36.1327 316.405 36.5009 315.94 36.8628C315.488 37.2246 314.984 37.5477 314.428 37.832C313.872 38.1162 313.271 38.3489 312.625 38.5298C311.992 38.6978 311.333 38.7817 310.648 38.7817C309.472 38.7817 308.387 38.6267 307.392 38.3165C306.41 37.9935 305.492 37.4314 304.639 36.6302C302.546 34.8081 301.499 32.4821 301.499 29.6521ZM310.474 21.8792C309.892 21.8792 309.395 21.9439 308.981 22.0731C308.581 22.1894 308.219 22.3638 307.896 22.5964C307.586 22.8161 307.301 23.0875 307.043 23.4106C306.784 23.7336 306.519 24.0954 306.248 24.496C305.757 25.2585 305.434 26.0726 305.279 26.9384C305.124 27.7912 305.046 28.657 305.046 29.5358C305.046 30.5437 305.143 31.5517 305.337 32.5596C305.544 33.5546 305.938 34.5238 306.519 35.4672C306.675 35.7385 306.894 36.0228 307.179 36.32C307.463 36.6043 307.773 36.8692 308.109 37.1148C308.445 37.3474 308.787 37.5477 309.136 37.7157C309.498 37.8707 309.834 37.9483 310.144 37.9483C310.752 37.9483 311.281 37.8449 311.734 37.6381C312.199 37.4314 312.612 37.16 312.974 36.824C313.336 36.4751 313.653 36.081 313.924 35.6416C314.208 35.1893 314.48 34.7241 314.738 34.246C315.061 33.6128 315.294 32.9344 315.436 32.2107C315.591 31.4741 315.669 30.6794 315.669 29.8265C315.669 29.2192 315.623 28.6506 315.533 28.1208C315.455 27.591 315.326 27.0805 315.145 26.5895C314.977 26.0984 314.764 25.6203 314.506 25.1551C314.247 24.6769 313.943 24.1924 313.594 23.7013C313.246 23.1715 312.8 22.7386 312.257 22.4026C311.727 22.0537 311.133 21.8792 310.474 21.8792Z" fill="#474752"/>
<path d="M323.422 38.7817C323.293 38.7817 323.151 38.7753 322.996 38.7624C322.84 38.7494 322.692 38.7236 322.55 38.6848C322.42 38.6331 322.311 38.5621 322.22 38.4716C322.13 38.3812 322.085 38.2584 322.085 38.1033C322.085 37.987 322.091 37.8836 322.104 37.7932C322.13 37.7027 322.201 37.6317 322.317 37.58C322.731 37.5154 323.073 37.4701 323.344 37.4443C323.629 37.4184 323.868 37.3603 324.062 37.2698C324.255 37.1794 324.411 37.0243 324.527 36.8046C324.656 36.572 324.766 36.2231 324.856 35.7579C324.856 34.6595 324.863 33.5288 324.876 32.3658C324.902 31.2028 324.94 30.0785 324.992 28.993C325.018 28.2048 325.083 27.4423 325.186 26.7058C325.302 25.9563 325.36 25.1874 325.36 24.3991C325.36 24.257 325.354 24.1536 325.341 24.089C325.328 24.0244 325.289 23.9016 325.225 23.7207C325.186 23.6561 325.108 23.5398 324.992 23.3718C324.876 23.1909 324.747 23.01 324.604 22.829C324.462 22.6352 324.32 22.4543 324.178 22.2863C324.049 22.1054 323.952 21.9826 323.887 21.918C323.758 21.7629 323.571 21.6402 323.325 21.5497C323.08 21.4463 322.834 21.3494 322.588 21.259C322.356 21.1556 322.149 21.0458 321.968 20.9295C321.8 20.8002 321.716 20.6258 321.716 20.4061C321.716 20.2898 321.755 20.1993 321.833 20.1347C321.923 20.0572 322.026 19.999 322.143 19.9603C322.272 19.9215 322.395 19.8957 322.511 19.8827C322.64 19.8698 322.744 19.8634 322.821 19.8634C322.847 19.8634 322.899 19.8698 322.976 19.8827C323.054 19.8957 323.138 19.915 323.228 19.9409C323.319 19.9538 323.403 19.9667 323.48 19.9797C323.558 19.9926 323.616 19.999 323.655 19.999H325.709C325.774 20.0249 325.877 20.083 326.019 20.1735C326.162 20.251 326.258 20.3156 326.31 20.3673C327.292 21.4399 328.255 22.4931 329.198 23.5269C330.142 24.5606 331.072 25.5815 331.99 26.5895C332.92 27.5974 333.844 28.5989 334.761 29.5939C335.692 30.5889 336.629 31.5969 337.572 32.6178C337.637 32.6824 337.695 32.7405 337.746 32.7922C337.798 32.831 337.85 32.8698 337.902 32.9085C337.953 32.9344 337.998 32.9473 338.037 32.9473C338.154 32.9473 338.244 32.8956 338.309 32.7922C338.373 32.6759 338.406 32.6048 338.406 32.579V26.2406C338.406 25.7883 338.393 25.3295 338.367 24.8643C338.354 24.3991 338.328 23.9662 338.289 23.5656C338.25 23.1521 338.199 22.7838 338.134 22.4608C338.07 22.1377 337.992 21.8986 337.902 21.7436C337.721 21.4463 337.443 21.2396 337.068 21.1233C336.693 21.007 336.319 20.923 335.944 20.8713C335.569 20.8067 335.24 20.7421 334.955 20.6775C334.684 20.6129 334.548 20.4901 334.548 20.3092C334.548 19.9474 334.761 19.7664 335.188 19.7664H342.534C342.78 19.7664 342.902 19.915 342.902 20.2123C342.902 20.3415 342.76 20.4513 342.476 20.5418C342.192 20.6193 341.869 20.7227 341.507 20.8519C341.145 20.9811 340.79 21.1491 340.441 21.3559C340.105 21.5627 339.879 21.8469 339.762 22.2088C339.62 22.5318 339.523 22.8807 339.472 23.2555C339.42 23.6302 339.394 24.1471 339.394 24.8062V38.3747C339.394 38.491 339.349 38.5879 339.258 38.6654C339.168 38.743 339.097 38.7817 339.045 38.7817C338.877 38.7817 338.69 38.659 338.483 38.4135C338.431 38.3489 338.263 38.1615 337.979 37.8513C337.708 37.5412 337.352 37.1471 336.913 36.6689C336.474 36.1908 335.97 35.6481 335.401 35.0407C334.832 34.4334 334.238 33.7937 333.618 33.1217C332.997 32.4498 332.364 31.7649 331.718 31.0671C331.072 30.3693 330.452 29.6973 329.857 29.0512C329.263 28.4051 328.701 27.8042 328.171 27.2485C327.654 26.6799 327.215 26.1953 326.853 25.7947C326.724 25.6914 326.607 25.6397 326.504 25.6397C326.297 25.6397 326.168 25.7689 326.116 26.0273C326.065 26.2858 326.039 26.5572 326.039 26.8415C326.039 26.9707 326.039 27.1645 326.039 27.423C326.052 27.6685 326.065 27.9592 326.078 28.2952C326.09 28.6183 326.103 28.9672 326.116 29.3419C326.142 29.7038 326.162 30.0591 326.174 30.408C326.187 30.744 326.194 31.0542 326.194 31.3384C326.207 31.6227 326.213 31.8489 326.213 32.0169V32.9473C326.213 33.2445 326.213 33.5805 326.213 33.9552C326.226 34.33 326.246 34.6983 326.271 35.0601C326.31 35.4219 326.355 35.7514 326.407 36.0487C326.472 36.3459 326.562 36.572 326.678 36.7271C326.808 36.9338 326.976 37.0825 327.182 37.1729C327.389 37.2634 327.609 37.328 327.841 37.3667C328.074 37.3926 328.307 37.412 328.539 37.4249C328.785 37.4249 328.998 37.4443 329.179 37.483C329.373 37.5218 329.528 37.5993 329.644 37.7157C329.76 37.819 329.819 37.987 329.819 38.2196C329.819 38.3359 329.806 38.4328 329.78 38.5104C329.767 38.575 329.696 38.6654 329.567 38.7817H323.422Z" fill="#474752"/>
<path d="M43.1203 37.0536L61.2006 33.0357V41.0714H41.1113V34.3475C45.2276 32.5737 48.1426 28.158 48.1426 22.9911C48.1426 16.2612 43.1966 10.9917 37.0935 10.9917C30.9903 10.9917 26.0444 16.2592 26.0444 22.9911C26.0444 28.158 28.9593 32.5737 33.0756 34.3475V41.0714H12.9863V33.0357L31.0667 37.0536V36.031C25.1765 33.9458 21.022 28.8933 21.022 22.9911C21.022 15.2246 28.218 8.92857 37.0935 8.92857C45.9689 8.92857 53.1649 15.2246 53.1649 22.9911C53.1649 28.8933 49.0104 33.9437 43.1203 36.031V37.0536Z" fill="#474752"/>
</svg>
