<svg width="205" height="50" viewBox="0 0 205 50" fill="none" xmlns="http://www.w3.org/2000/svg">
<path d="M73.9923 31.8954C73.4907 31.8954 73.0831 31.7778 72.7695 31.5427C72.456 31.2918 72.2052 30.9156 72.017 30.4139L67.2669 17.0571C67.0631 16.4613 67.1023 15.9518 67.3844 15.5285C67.6823 15.1053 68.1918 14.8936 68.913 14.8936C69.4146 14.8936 69.7987 15.0112 70.0652 15.2463C70.3474 15.4815 70.5747 15.8499 70.7472 16.3516L74.6273 27.8978H73.6161L77.7078 16.3751C77.8959 15.8734 78.1233 15.505 78.3898 15.2699C78.6719 15.019 79.0404 14.8936 79.495 14.8936C79.934 14.8936 80.2867 15.019 80.5532 15.2699C80.8197 15.505 81.047 15.8813 81.2352 16.3986L85.1387 27.8978H84.2687L88.2193 16.3516C88.3761 15.8656 88.5955 15.505 88.8777 15.2699C89.1599 15.019 89.544 14.8936 90.03 14.8936C90.6414 14.8936 91.0882 15.1053 91.3704 15.5285C91.6526 15.9518 91.6839 16.4613 91.4644 17.0571L86.6673 30.4374C86.4948 30.9234 86.2597 31.2918 85.9618 31.5427C85.6639 31.7778 85.2563 31.8954 84.739 31.8954C84.2373 31.8954 83.8375 31.7778 83.5397 31.5427C83.2418 31.2918 82.9988 30.9156 82.8107 30.4139L79.0952 19.9024H79.6596L75.8971 30.4374C75.709 30.9234 75.466 31.2918 75.1681 31.5427C74.8859 31.7778 74.494 31.8954 73.9923 31.8954Z" fill="#474752"/>
<path d="M97.2491 31.8954C96.6691 31.8954 96.2223 31.7386 95.9087 31.4251C95.6108 31.1116 95.4619 30.6648 95.4619 30.0847V16.7043C95.4619 16.1086 95.6108 15.6618 95.9087 15.3639C96.2223 15.0504 96.6691 14.8936 97.2491 14.8936C97.8135 14.8936 98.2446 15.0504 98.5425 15.3639C98.856 15.6618 99.0128 16.1086 99.0128 16.7043V22.301H98.6836C99.0441 21.5329 99.5772 20.945 100.283 20.5374C101.004 20.1141 101.819 19.9024 102.728 19.9024C103.653 19.9024 104.414 20.0827 105.009 20.4433C105.605 20.7882 106.052 21.3212 106.35 22.0424C106.648 22.7478 106.796 23.6493 106.796 24.7467V30.0847C106.796 30.6648 106.64 31.1116 106.326 31.4251C106.028 31.7386 105.589 31.8954 105.009 31.8954C104.445 31.8954 104.006 31.7386 103.692 31.4251C103.395 31.1116 103.246 30.6648 103.246 30.0847V24.9113C103.246 24.1117 103.097 23.5395 102.799 23.1946C102.517 22.8341 102.078 22.6538 101.482 22.6538C100.729 22.6538 100.126 22.8889 99.6712 23.3592C99.2323 23.8296 99.0128 24.4566 99.0128 25.2405V30.0847C99.0128 31.2918 98.4249 31.8954 97.2491 31.8954Z" fill="#474752"/>
<path d="M115.914 31.9424C114.55 31.9424 113.374 31.6994 112.387 31.2135C111.415 30.7118 110.662 30.0142 110.129 29.1206C109.612 28.2113 109.353 27.1453 109.353 25.9224C109.353 24.731 109.604 23.6885 110.106 22.7949C110.607 21.8856 111.305 21.1801 112.199 20.6785C113.108 20.1611 114.135 19.9024 115.279 19.9024C116.11 19.9024 116.863 20.0435 117.537 20.3257C118.211 20.5922 118.791 20.9842 119.277 21.5015C119.763 22.0032 120.131 22.6224 120.382 23.3592C120.633 24.0804 120.758 24.8878 120.758 25.7813C120.758 26.0792 120.664 26.3065 120.476 26.4633C120.288 26.6044 120.014 26.6749 119.653 26.6749H112.269V24.8407H118.195L117.819 25.1699C117.819 24.5272 117.725 23.9942 117.537 23.5709C117.349 23.1319 117.074 22.8027 116.714 22.5832C116.369 22.3637 115.938 22.254 115.42 22.254C114.84 22.254 114.346 22.3873 113.939 22.6538C113.531 22.9203 113.218 23.3044 112.998 23.806C112.779 24.3077 112.669 24.9113 112.669 25.6167V25.8049C112.669 26.9963 112.943 27.8742 113.492 28.4386C114.056 29.003 114.887 29.2852 115.985 29.2852C116.361 29.2852 116.792 29.2381 117.278 29.1441C117.764 29.05 118.219 28.9011 118.642 28.6973C119.002 28.5248 119.324 28.47 119.606 28.5327C119.888 28.5797 120.108 28.7051 120.264 28.9089C120.421 29.1127 120.507 29.3479 120.523 29.6144C120.554 29.8809 120.5 30.1474 120.359 30.4139C120.217 30.6648 119.982 30.8764 119.653 31.0488C119.12 31.3467 118.516 31.5662 117.842 31.7073C117.184 31.8641 116.541 31.9424 115.914 31.9424Z" fill="#474752"/>
<path d="M129.29 31.9424C127.927 31.9424 126.751 31.6994 125.763 31.2135C124.791 30.7118 124.039 30.0142 123.506 29.1206C122.988 28.2113 122.73 27.1453 122.73 25.9224C122.73 24.731 122.98 23.6885 123.482 22.7949C123.984 21.8856 124.681 21.1801 125.575 20.6785C126.484 20.1611 127.511 19.9024 128.656 19.9024C129.486 19.9024 130.239 20.0435 130.913 20.3257C131.587 20.5922 132.167 20.9842 132.653 21.5015C133.139 22.0032 133.508 22.6224 133.758 23.3592C134.009 24.0804 134.135 24.8878 134.135 25.7813C134.135 26.0792 134.041 26.3065 133.852 26.4633C133.664 26.6044 133.39 26.6749 133.029 26.6749H125.646V24.8407H131.571L131.195 25.1699C131.195 24.5272 131.101 23.9942 130.913 23.5709C130.725 23.1319 130.451 22.8027 130.09 22.5832C129.745 22.3637 129.314 22.254 128.797 22.254C128.217 22.254 127.723 22.3873 127.315 22.6538C126.908 22.9203 126.594 23.3044 126.374 23.806C126.155 24.3077 126.045 24.9113 126.045 25.6167V25.8049C126.045 26.9963 126.32 27.8742 126.868 28.4386C127.433 29.003 128.264 29.2852 129.361 29.2852C129.737 29.2852 130.168 29.2381 130.654 29.1441C131.14 29.05 131.595 28.9011 132.018 28.6973C132.379 28.5248 132.7 28.47 132.982 28.5327C133.265 28.5797 133.484 28.7051 133.641 28.9089C133.798 29.1127 133.884 29.3479 133.899 29.6144C133.931 29.8809 133.876 30.1474 133.735 30.4139C133.594 30.6648 133.359 30.8764 133.029 31.0488C132.496 31.3467 131.893 31.5662 131.219 31.7073C130.56 31.8641 129.918 31.9424 129.29 31.9424Z" fill="#474752"/>
<path d="M140.833 31.9424C139.437 31.9424 138.395 31.5584 137.705 30.7902C137.015 30.0063 136.67 28.8462 136.67 27.3099V16.7043C136.67 16.1086 136.819 15.6618 137.117 15.3639C137.431 15.0504 137.877 14.8936 138.457 14.8936C139.022 14.8936 139.453 15.0504 139.751 15.3639C140.064 15.6618 140.221 16.1086 140.221 16.7043V27.1688C140.221 27.8115 140.354 28.2897 140.621 28.6032C140.903 28.9011 141.272 29.05 141.726 29.05C141.852 29.05 141.969 29.0422 142.079 29.0265C142.189 29.0108 142.306 29.003 142.432 29.003C142.682 28.9716 142.855 29.05 142.949 29.2381C143.059 29.4106 143.114 29.7633 143.114 30.2963C143.114 30.7667 143.02 31.1272 142.831 31.3781C142.643 31.6132 142.353 31.77 141.961 31.8484C141.805 31.8641 141.624 31.8797 141.42 31.8954C141.217 31.9268 141.021 31.9424 140.833 31.9424Z" fill="#474752"/>
<path d="M145.748 31.8954C145.309 31.8954 144.948 31.7935 144.666 31.5897C144.399 31.3859 144.227 31.1116 144.148 30.7667C144.086 30.4218 144.156 30.0377 144.36 29.6144L150.38 16.4221C150.631 15.8891 150.929 15.505 151.274 15.2699C151.619 15.019 152.018 14.8936 152.473 14.8936C152.928 14.8936 153.327 15.019 153.672 15.2699C154.017 15.505 154.307 15.8891 154.542 16.4221L160.609 29.6144C160.813 30.0377 160.884 30.4296 160.821 30.7902C160.774 31.1351 160.617 31.4094 160.351 31.6132C160.084 31.8013 159.739 31.8954 159.316 31.8954C158.783 31.8954 158.368 31.77 158.07 31.5192C157.788 31.2683 157.537 30.8764 157.317 30.3434L155.906 27.0747L157.364 28.0859H147.558L149.016 27.0747L147.629 30.3434C147.394 30.8921 147.143 31.2918 146.876 31.5427C146.625 31.7778 146.249 31.8954 145.748 31.8954ZM152.426 18.9853L149.416 26.1576L148.781 25.2405H156.141L155.506 26.1576L152.473 18.9853H152.426Z" fill="#474752"/>
<path d="M164.935 36.1282C164.355 36.1282 163.908 35.9715 163.594 35.6579C163.296 35.36 163.147 34.9132 163.147 34.3175V21.7367C163.147 21.1566 163.296 20.7177 163.594 20.4198C163.908 20.1062 164.339 19.9495 164.888 19.9495C165.468 19.9495 165.907 20.1062 166.204 20.4198C166.502 20.7177 166.651 21.1566 166.651 21.7367V23.3357L166.393 22.4186C166.628 21.6661 167.098 21.0625 167.804 20.6079C168.525 20.1376 169.348 19.9024 170.273 19.9024C171.276 19.9024 172.154 20.1454 172.906 20.6314C173.675 21.1174 174.27 21.8072 174.694 22.7008C175.117 23.5944 175.329 24.6604 175.329 25.8989C175.329 27.1374 175.117 28.2113 174.694 29.1206C174.27 30.0298 173.682 30.7275 172.93 31.2135C172.177 31.6994 171.292 31.9424 170.273 31.9424C169.363 31.9424 168.556 31.723 167.851 31.284C167.145 30.8294 166.667 30.2415 166.416 29.5203H166.698V34.3175C166.698 34.9132 166.542 35.36 166.228 35.6579C165.93 35.9715 165.499 36.1282 164.935 36.1282ZM169.214 29.2852C169.716 29.2852 170.155 29.1598 170.531 28.9089C170.923 28.6581 171.221 28.2897 171.425 27.8037C171.644 27.302 171.754 26.6671 171.754 25.8989C171.754 24.7545 171.519 23.9158 171.049 23.3828C170.578 22.8341 169.967 22.5597 169.214 22.5597C168.713 22.5597 168.266 22.6773 167.874 22.9124C167.498 23.1476 167.2 23.516 166.98 24.0177C166.761 24.5037 166.651 25.1307 166.651 25.8989C166.651 27.0434 166.886 27.8978 167.357 28.4621C167.827 29.0108 168.446 29.2852 169.214 29.2852Z" fill="#474752"/>
<path d="M179.758 36.1282C179.178 36.1282 178.731 35.9715 178.417 35.6579C178.119 35.36 177.971 34.9132 177.971 34.3175V21.7367C177.971 21.1566 178.119 20.7177 178.417 20.4198C178.731 20.1062 179.162 19.9495 179.711 19.9495C180.291 19.9495 180.73 20.1062 181.028 20.4198C181.325 20.7177 181.474 21.1566 181.474 21.7367V23.3357L181.216 22.4186C181.451 21.6661 181.921 21.0625 182.627 20.6079C183.348 20.1376 184.171 19.9024 185.096 19.9024C186.099 19.9024 186.977 20.1454 187.729 20.6314C188.498 21.1174 189.093 21.8072 189.517 22.7008C189.94 23.5944 190.152 24.6604 190.152 25.8989C190.152 27.1374 189.94 28.2113 189.517 29.1206C189.093 30.0298 188.506 30.7275 187.753 31.2135C187.001 31.6994 186.115 31.9424 185.096 31.9424C184.186 31.9424 183.379 31.723 182.674 31.284C181.968 30.8294 181.49 30.2415 181.239 29.5203H181.521V34.3175C181.521 34.9132 181.365 35.36 181.051 35.6579C180.753 35.9715 180.322 36.1282 179.758 36.1282ZM184.038 29.2852C184.539 29.2852 184.978 29.1598 185.354 28.9089C185.746 28.6581 186.044 28.2897 186.248 27.8037C186.467 27.302 186.577 26.6671 186.577 25.8989C186.577 24.7545 186.342 23.9158 185.872 23.3828C185.401 22.8341 184.79 22.5597 184.038 22.5597C183.536 22.5597 183.089 22.6773 182.697 22.9124C182.321 23.1476 182.023 23.516 181.804 24.0177C181.584 24.5037 181.474 25.1307 181.474 25.8989C181.474 27.0434 181.71 27.8978 182.18 28.4621C182.65 29.0108 183.269 29.2852 184.038 29.2852Z" fill="#474752"/>
<line x1="15.2543" y1="30.688" x2="58.0783" y2="40.2044" stroke="#474752" stroke-width="2.23636"/>
<path d="M38.2233 30.0223C36.4847 31.3555 34.3812 32.1271 32.1929 32.2344C30.0047 32.3418 27.8357 31.7796 25.9751 30.6229C24.1145 29.4663 22.6505 27.77 21.7784 25.7602C20.9063 23.7504 20.6674 21.5225 21.0936 19.3735C21.5198 17.2245 22.5908 15.2564 24.1639 13.7316C25.737 12.2067 27.7374 11.1975 29.8987 10.8384C32.0599 10.4793 34.2792 10.7874 36.2609 11.7217C38.2426 12.6559 39.8925 14.1719 40.9907 16.0677" stroke="#474752" stroke-width="2.23636"/>
<path d="M57.5108 24.6422C57.5108 30.5943 52.6856 35.4195 46.7334 35.4195C40.7813 35.4195 35.9561 30.5943 35.9561 24.6422C35.9561 18.69 40.7813 13.8648 46.7334 13.8648C52.6856 13.8648 57.5108 18.69 57.5108 24.6422Z" fill="#474752" stroke="#474752" stroke-width="2.23636"/>
</svg>
