<svg width="324" height="50" viewBox="0 0 324 50" fill="none" xmlns="http://www.w3.org/2000/svg">
<path d="M66.8777 22.6373C66.8556 22.2835 66.8445 21.7527 66.8445 21.045V19.7844C66.8445 18.944 66.8224 18.3137 66.7782 17.8935C66.734 17.5396 66.7118 16.6218 66.7118 15.14C66.7118 14.6093 66.8667 14.2001 67.1763 13.9126C67.508 13.603 67.9503 13.4482 68.5032 13.4482C69.2109 13.4482 69.6864 13.603 69.9297 13.9126C70.173 14.2222 70.2946 14.7309 70.2946 15.4386V16.6992L70.2614 20.3483C70.2393 21.056 70.2283 22.1176 70.2283 23.533L70.2614 26.2533C70.2836 26.6735 70.2946 27.2595 70.2946 28.0115C70.2946 28.6086 70.3167 29.4601 70.361 30.5659C70.4052 31.5832 70.4273 32.3462 70.4273 32.8549C70.4273 33.2751 70.3057 33.6621 70.0624 34.016C69.8412 34.3698 69.5316 34.5467 69.1335 34.5467C67.5854 34.5467 66.8114 34.027 66.8114 32.9876C66.8114 32.4125 66.8335 31.7712 66.8777 31.0635C66.9219 30.5548 66.9441 29.7808 66.9441 28.7413C66.9441 28.0115 66.9219 26.961 66.8777 25.5898C65.8383 25.6783 64.0469 25.7225 61.5035 25.7225C59.9112 25.7225 58.6727 25.7225 57.7881 25.7225C56.9034 25.7004 56.2621 25.6451 55.864 25.5566L55.8308 29.3716C55.8308 29.6149 55.8861 30.2673 55.9967 31.3289C56.1073 32.0366 56.1626 32.6558 56.1626 33.1866C56.1626 33.5183 55.9635 33.839 55.5654 34.1486C55.1895 34.4362 54.8356 34.5799 54.5039 34.5799C53.7077 34.5799 53.1659 34.3919 52.8783 34.016C52.5908 33.6179 52.4471 33.0207 52.4471 32.2246L52.4139 29.6038C52.3918 29.2942 52.3807 28.8629 52.3807 28.3101C52.3807 27.4918 52.3586 26.3749 52.3144 24.9595C52.2702 23.6768 52.248 22.7479 52.248 22.1729C52.248 21.3104 52.2702 20.1051 52.3144 18.5569C52.3586 17.0973 52.3807 16.0136 52.3807 15.3059C52.3807 14.5982 52.5577 14.1227 52.9115 13.8794C53.2654 13.6362 53.6635 13.5145 54.1058 13.5145C55.3443 13.5145 55.9635 13.9237 55.9635 14.7419C55.9635 16.2016 55.9303 17.5949 55.864 18.9219C55.8198 20.6027 55.7976 21.8301 55.7976 22.6041C56.439 22.759 57.1135 22.8585 57.8213 22.9027C58.529 22.9469 59.5242 22.9691 60.8069 22.9691C63.4166 22.9691 65.4402 22.8585 66.8777 22.6373Z" fill="#474752"/>
<path d="M76.2786 13.216C77.0527 13.2823 77.7272 13.4924 78.3022 13.8463C78.8772 14.178 79.1647 14.6867 79.1647 15.3723C79.1647 15.8809 78.9215 16.2901 78.4349 16.5997C77.9705 16.8872 77.4065 17.0309 76.743 17.0309C76.1017 17.0309 75.6594 16.8651 75.4161 16.5333C75.1728 16.2016 75.0512 15.8588 75.0512 15.5049C75.0512 14.8415 75.1175 14.2886 75.2502 13.8463C75.405 13.4039 75.7478 13.1938 76.2786 13.216ZM78.9325 28.874C78.9325 29.7365 78.9546 30.5548 78.9989 31.3289C79.0652 32.0808 79.1426 32.8438 79.2311 33.6179C79.209 33.839 79.0431 34.0712 78.7335 34.3145C78.4238 34.5357 78.1474 34.6463 77.9041 34.6463C77.4839 34.6463 77.0527 34.5688 76.6103 34.414C76.1901 34.2371 75.9358 34.027 75.8473 33.7837C75.7147 33.076 75.6483 32.4457 75.6483 31.8928C75.6483 30.0793 75.593 28.0447 75.4824 25.7888C75.394 23.7984 75.3497 22.4051 75.3497 21.6089C75.3497 21.2108 75.5488 20.8681 75.9469 20.5805C76.345 20.293 76.7652 20.1493 77.2075 20.1493C77.8488 20.1493 78.2912 20.293 78.5344 20.5805C78.7998 20.8681 78.9325 21.3214 78.9325 21.9407V28.874Z" fill="#474752"/>
<path d="M95.0503 34.4472C95.6475 34.8674 96.0456 35.3318 96.2446 35.8405C96.4658 36.3492 96.5763 37.0569 96.5763 37.9636C96.5763 38.406 96.4436 38.8483 96.1782 39.2906C95.935 39.7329 95.6806 40.0536 95.4152 40.2526C93.3142 41.4027 91.2132 41.9777 89.1122 41.9777C88.0728 41.9777 87.1771 41.845 86.4251 41.5796C85.6732 41.3142 84.9655 40.9603 84.302 40.518C83.8597 40.1863 83.4948 39.7219 83.2073 39.1247C82.9419 38.5497 82.8092 37.9747 82.8092 37.3997C82.8092 36.6035 83.0525 35.9069 83.539 35.3097C84.0477 34.7126 84.7222 34.2813 85.5626 34.016C85.4078 33.6842 85.3304 33.2972 85.3304 32.8549C85.3304 32.4347 85.64 31.8044 86.2593 30.964C85.1977 30.6101 84.3573 29.9798 83.7381 29.073C83.1409 28.1663 82.8424 27.1047 82.8424 25.8884C82.8424 25.1364 83.0193 24.4729 83.3731 23.8979C83.727 23.3008 84.2578 22.6152 84.9655 21.8412C85.452 21.3104 86.0713 20.9233 86.8232 20.6801C87.5752 20.4368 88.5151 20.3152 89.643 20.3152C90.4392 20.3152 91.4233 20.4921 92.5955 20.8459C93.9888 19.8728 95.2162 19.3863 96.2778 19.3863C96.5432 19.3863 96.8417 19.4526 97.1735 19.5853C97.5273 19.718 97.7927 19.8507 97.9696 19.9834C98.1023 20.2267 98.1687 20.6358 98.1687 21.2108C98.1687 21.432 98.0692 21.6532 97.8701 21.8743C97.6932 22.0734 97.461 22.1729 97.1735 22.1729L96.3773 22.1397C95.9792 22.0955 95.6696 22.0734 95.4484 22.0734C95.2052 22.0734 94.8402 22.0955 94.3537 22.1397C94.8181 22.6926 95.172 23.2787 95.4152 23.8979C95.6806 24.5172 95.8133 25.3244 95.8133 26.3196C95.8133 27.0716 95.5369 27.8567 94.984 28.675C94.4311 29.4933 93.7787 30.1346 93.0267 30.599C91.8767 31.2183 90.5387 31.539 89.0127 31.5611C88.8358 31.738 88.681 31.9039 88.5483 32.0587C88.4377 32.1914 88.3824 32.302 88.3824 32.3904C88.3824 32.6337 88.5925 32.8217 89.0127 32.9544C89.4329 33.0871 90.0743 33.1866 90.9368 33.253C91.6003 33.2972 92.3301 33.4409 93.1263 33.6842C93.9445 33.9054 94.5859 34.1597 95.0503 34.4472ZM89.2117 28.8408C90.2291 28.8408 91.0474 28.5644 91.6666 28.0115C92.2859 27.4586 92.5955 26.6735 92.5955 25.6561C92.5955 24.8821 92.319 24.2518 91.7661 23.7652C91.2132 23.2787 90.5055 23.0354 89.643 23.0354C89.0901 23.0354 88.493 23.1349 87.8516 23.334C87.2324 23.5109 86.7901 23.7984 86.5247 24.1965C86.392 24.3734 86.2593 24.7162 86.1266 25.2249C85.9939 25.7114 85.9275 26.0874 85.9275 26.3528C85.9275 26.7288 86.0823 27.1158 86.392 27.5139C86.7237 27.8898 87.1439 28.2105 87.6526 28.4759C88.1834 28.7192 88.7031 28.8408 89.2117 28.8408ZM91.3017 36.0396C90.0853 35.929 89.2228 35.8184 88.7141 35.7078C88.2276 35.6194 87.8295 35.5088 87.5199 35.3761C86.392 35.9732 85.828 36.6256 85.828 37.3333C85.828 37.9968 86.1708 38.4944 86.8564 38.8262C87.542 39.18 88.3271 39.3569 89.2117 39.3569C89.6098 39.3569 90.1517 39.3127 90.8373 39.2242C91.5229 39.1358 92.0979 38.981 92.5623 38.7598C92.8719 38.605 93.1041 38.4502 93.2589 38.2954C93.4138 38.1627 93.4912 37.9083 93.4912 37.5324C93.4912 37.0679 93.2479 36.7141 92.7613 36.4708C92.2748 36.2275 91.7882 36.0838 91.3017 36.0396Z" fill="#474752"/>
<path d="M113.618 34.6131C111.959 34.6131 110.842 33.9717 110.267 32.689C109.98 32.0476 109.792 31.2183 109.703 30.201C109.615 29.1615 109.57 27.9451 109.57 26.5518V25.5234C109.57 23.9311 109.04 23.1349 107.978 23.1349C107.359 23.1349 106.74 23.4556 106.12 24.097C105.501 24.7162 104.981 25.5456 104.561 26.585C104.163 27.6023 103.964 28.6639 103.964 29.7697C103.964 30.4995 103.997 31.163 104.064 31.7601C104.108 32.5121 104.13 33.0871 104.13 33.4852C104.13 34.2371 103.61 34.6131 102.571 34.6131C102.062 34.6131 101.609 34.5025 101.211 34.2813C100.835 34.0602 100.647 33.7727 100.647 33.4188C100.735 32.2909 100.779 30.8976 100.779 29.2389L100.746 24.86C100.746 24.1523 100.691 21.5315 100.58 16.9978L100.481 13.9458C100.481 13.4592 100.702 13.039 101.144 12.6852C101.587 12.3092 102.084 12.1212 102.637 12.1212C103.124 12.1212 103.477 12.2318 103.699 12.453C103.92 12.6741 104.03 13.0169 104.03 13.4813C104.03 14.0564 104.019 14.7309 103.997 15.5049C103.975 16.2569 103.953 16.8319 103.931 17.23C103.864 18.3579 103.831 19.4858 103.831 20.6137C103.831 21.7195 103.809 22.5931 103.765 23.2345C104.428 22.2614 105.18 21.5426 106.021 21.0782C106.883 20.5916 107.89 20.3483 109.04 20.3483C109.88 20.3483 110.654 20.7243 111.362 21.4762C112.092 22.2061 112.534 23.0465 112.689 23.9975C112.733 24.484 112.755 25.2028 112.755 26.1538L112.722 28.5754C112.722 28.9514 112.744 29.5375 112.788 30.3337C112.81 30.7096 112.932 31.1077 113.153 31.5279C113.396 31.9481 113.673 32.2577 113.982 32.4568C114.27 32.6337 114.458 32.8106 114.546 32.9876C114.635 33.1645 114.679 33.3635 114.679 33.5847C114.679 33.8058 114.58 34.0381 114.381 34.2813C114.182 34.5025 113.927 34.6131 113.618 34.6131Z" fill="#474752"/>
<path d="M141.296 16.6992C141.628 17.0973 141.86 17.418 141.993 17.6612C142.126 17.9045 142.192 18.1367 142.192 18.3579C142.192 18.6233 142.015 18.9329 141.661 19.2868C141.329 19.6406 140.998 19.8175 140.666 19.8175C140.224 19.8175 139.87 19.7512 139.604 19.6185C139.339 19.4858 139.118 19.2757 138.941 18.9882C138.521 18.3247 138.034 17.7387 137.481 17.23C136.928 16.6992 136.187 16.4338 135.259 16.4338C134.352 16.4338 133.335 16.6439 132.207 17.0641C131.079 17.4843 130.249 18.004 129.719 18.6233C128.524 20.0829 127.927 22.0181 127.927 24.4287C127.927 26.3528 128.524 28.0004 129.719 29.3716C130.979 30.787 132.572 31.4947 134.496 31.4947C135.38 31.4947 136.342 31.3399 137.382 31.0303C138.443 30.6986 139.284 30.1678 139.903 29.438H139.87C140.268 29.0178 140.765 28.8077 141.363 28.8077C141.716 28.8077 142.048 28.9625 142.358 29.2721C142.69 29.5817 142.855 29.8913 142.855 30.201C142.855 30.5327 142.8 30.8313 142.69 31.0967C142.601 31.3399 142.424 31.6164 142.159 31.926C141.252 32.9212 140.091 33.6179 138.675 34.016C137.282 34.3919 135.69 34.5799 133.898 34.5799C132.417 34.5799 130.99 34.2261 129.619 33.5183C128.27 32.8106 127.153 31.9149 126.268 30.8313C125.826 30.1899 125.395 29.2721 124.975 28.0778C124.577 26.8615 124.378 25.8773 124.378 25.1254C124.378 23.2013 124.665 21.3767 125.24 19.6517C125.837 17.9045 126.722 16.5112 127.894 15.4718C128.668 14.7641 129.785 14.2333 131.245 13.8794C132.704 13.5256 134.042 13.3486 135.259 13.3486C136.232 13.3486 137.061 13.4924 137.747 13.7799C138.454 14.0453 139.063 14.4102 139.571 14.8746C140.08 15.317 140.655 15.9251 141.296 16.6992Z" fill="#474752"/>
<path d="M158.864 23.8648C159.041 24.1744 159.185 24.6278 159.296 25.2249C159.406 25.7999 159.462 26.3196 159.462 26.7841C159.462 27.3812 159.395 28.0447 159.262 28.7745C159.13 29.5043 159.008 30.0683 158.898 30.4664C157.372 33.253 155.116 34.6463 152.13 34.6463C151.024 34.6463 149.896 34.2813 148.746 33.5515C147.596 32.8217 146.8 31.9813 146.358 31.0303C145.761 29.1505 145.462 27.9451 145.462 27.4144C145.462 26.5297 145.65 25.5898 146.026 24.5946C146.424 23.5994 146.922 22.7368 147.519 22.007C147.917 21.4984 148.603 21.0671 149.576 20.7132C150.549 20.3373 151.433 20.1493 152.23 20.1493C153.778 20.1493 155.083 20.4478 156.144 21.045C157.228 21.62 158.135 22.5599 158.864 23.8648ZM155.978 29.2057C156.089 28.9846 156.144 28.2437 156.144 26.9831C156.144 26.3417 156.022 25.7114 155.779 25.0922C155.558 24.4729 155.226 23.9422 154.784 23.4998C154.74 23.4556 154.618 23.3893 154.419 23.3008C154.22 23.1902 153.944 23.0907 153.59 23.0022C153.258 22.8917 152.871 22.8364 152.429 22.8364C151.19 22.8364 150.283 23.334 149.708 24.3292C149.133 25.3244 148.846 26.4523 148.846 27.7129C148.846 27.912 148.912 28.3211 149.045 28.9404C149.178 29.5596 149.277 29.9577 149.343 30.1346C149.52 30.4442 149.874 30.8091 150.405 31.2293C150.958 31.6274 151.555 31.8265 152.196 31.8265C153.192 31.8265 153.977 31.5943 154.552 31.1298C155.149 30.6433 155.624 30.0019 155.978 29.2057Z" fill="#474752"/>
<path d="M162.275 23.334C162.098 23.334 161.943 23.2676 161.811 23.1349C161.678 22.9801 161.612 22.8032 161.612 22.6041C161.612 21.9628 161.822 21.4762 162.242 21.1445C162.662 20.7906 163.182 20.6137 163.801 20.6137C164.664 20.6137 165.404 20.8459 166.024 21.3104C166.665 21.7527 166.986 22.394 166.986 23.2345C166.986 23.4556 166.942 24.296 166.853 25.7557C166.765 27.4365 166.72 28.5533 166.72 29.1062C166.72 29.8803 166.864 30.5106 167.152 30.9971C167.461 31.4616 167.937 31.6938 168.578 31.6938C169.817 31.6938 170.768 31.0082 171.431 29.637C172.117 28.2437 172.57 26.5408 172.791 24.5282C172.88 23.6436 173.012 22.7147 173.189 21.7416C173.278 21.2108 173.399 20.8238 173.554 20.5805C173.709 20.3373 174.008 20.2156 174.45 20.2156C174.737 20.2156 175.069 20.282 175.445 20.4147C175.843 20.5474 176.097 20.7243 176.208 20.9455C176.341 21.2772 176.407 21.6421 176.407 22.0402C176.407 22.5931 176.33 23.3119 176.175 24.1965C175.998 25.0811 175.876 26.0432 175.81 27.0826C175.766 28.0115 175.91 28.9846 176.241 30.0019C176.573 31.0192 177.048 31.6827 177.668 31.9923C178.375 32.3462 178.729 32.6669 178.729 32.9544C178.729 33.4188 178.563 33.7837 178.232 34.0491C177.9 34.3145 177.579 34.4472 177.27 34.4472C176.451 34.4472 175.71 34.1486 175.047 33.5515C174.406 32.9544 173.941 32.2135 173.654 31.3289C173.189 32.0366 172.736 32.6227 172.294 33.0871C171.873 33.5294 171.332 33.9054 170.668 34.215C170.005 34.5025 169.186 34.6463 168.213 34.6463C167.063 34.6463 166.013 34.2371 165.062 33.4188C164.133 32.6005 163.668 31.1962 163.668 29.2057C163.668 28.6528 163.679 28.0668 163.702 27.4475C163.746 26.8283 163.768 26.386 163.768 26.1206C163.834 25.3244 163.867 24.5946 163.867 23.9311C163.867 23.7321 163.79 23.5662 163.635 23.4335C163.502 23.3008 163.348 23.2345 163.171 23.2345C163.038 23.2345 162.883 23.2566 162.706 23.3008C162.552 23.3229 162.408 23.334 162.275 23.334Z" fill="#474752"/>
<path d="M196.201 31.9592C196.311 32.0034 196.488 32.0587 196.732 32.125C196.975 32.1914 197.152 32.2577 197.262 32.3241C197.373 32.3904 197.428 32.49 197.428 32.6227C197.45 33.1534 197.251 33.5957 196.831 33.9496C196.433 34.2813 195.957 34.4472 195.405 34.4472C194.542 34.4472 193.868 34.215 193.381 33.7506C192.894 33.2861 192.541 32.5784 192.319 31.6274C192.231 31.2515 192.187 30.7317 192.187 30.0683C192.187 29.6923 192.209 29.0841 192.253 28.2437C192.297 27.3591 192.319 26.6514 192.319 26.1206C192.319 25.1696 192.22 24.4508 192.021 23.9643C191.822 23.4556 191.346 23.2013 190.594 23.2013C189.82 23.2013 189.124 23.5109 188.504 24.1301C187.907 24.7494 187.399 25.6783 186.978 26.9167C186.403 28.6418 186.083 30.9308 186.016 33.7837C186.016 33.9385 185.85 34.1265 185.519 34.3477C185.209 34.5467 184.833 34.6463 184.391 34.6463C183.573 34.6463 183.064 34.215 182.865 33.3525L182.832 32.7885C182.832 32.5895 182.854 32.3573 182.898 32.0919C183.163 30.5438 183.296 29.1947 183.296 28.0447C183.296 27.536 183.285 27.1379 183.263 26.8504L183.23 25.2912C183.23 24.7604 183.097 24.2518 182.832 23.7652C182.566 23.2566 182.257 23.0022 181.903 23.0022C181.792 23.0022 181.637 23.0465 181.438 23.1349C181.239 23.2013 181.073 23.2345 180.941 23.2345C180.72 23.2345 180.476 23.1239 180.211 22.9027C179.968 22.6816 179.846 22.4493 179.846 22.2061C179.846 21.7416 180.001 21.3657 180.31 21.0782C180.642 20.8128 180.963 20.6027 181.273 20.4478C181.604 20.293 181.98 20.2156 182.4 20.2156C182.754 20.2156 183.042 20.2488 183.263 20.3152C183.484 20.3815 183.783 20.5253 184.159 20.7464C184.38 20.857 184.634 21.1666 184.922 21.6753C185.209 22.1839 185.43 22.9027 185.585 23.8316C186.027 23.0133 186.768 22.1508 187.808 21.244C188.582 20.5363 189.699 20.1825 191.158 20.1825C192.485 20.1825 193.536 20.669 194.31 21.6421C195.084 22.5931 195.471 23.909 195.471 25.5898C195.471 25.9215 195.449 26.4634 195.405 27.2153C195.338 27.8124 195.305 28.4427 195.305 29.1062C195.305 30.6543 195.604 31.6053 196.201 31.9592Z" fill="#474752"/>
<path d="M199.896 23.0354C199.586 22.9912 199.332 22.8585 199.133 22.6373C198.956 22.4162 198.867 22.1508 198.867 21.8412C198.867 21.6863 198.901 21.5205 198.967 21.3435C199.055 21.1666 199.177 21.0118 199.332 20.8791C199.619 20.5916 200.393 20.4478 201.654 20.4478C201.831 19.5853 201.919 18.7118 201.919 17.8271C201.919 17.4954 201.908 17.2079 201.886 16.9646C201.864 16.7213 201.853 16.5333 201.853 16.4006C201.853 15.9141 202.03 15.5492 202.384 15.3059C202.76 15.0626 203.18 14.941 203.644 14.941C204.219 14.941 204.606 15.0847 204.805 15.3723C205.027 15.6598 205.137 16.1905 205.137 16.9646C205.137 18.1146 205.038 19.2425 204.839 20.3483C205.192 20.3483 205.679 20.3262 206.298 20.282C207.139 20.2377 207.747 20.2156 208.123 20.2156C208.499 20.2156 208.82 20.3152 209.085 20.5142C209.372 20.6911 209.516 20.9455 209.516 21.2772C209.516 22.1397 209.129 22.6484 208.355 22.8032C207.537 23.0022 206.265 23.1239 204.54 23.1681C204.474 24.0306 204.441 24.9706 204.441 25.9879C204.441 27.5802 204.54 28.8851 204.739 29.9024C204.872 30.6101 205.093 31.1298 205.403 31.4616C205.734 31.7712 206.221 31.926 206.862 31.926C207.238 31.926 207.625 31.8265 208.023 31.6274C208.289 31.4726 208.532 31.3952 208.753 31.3952C209.063 31.3952 209.284 31.4947 209.417 31.6938C209.571 31.8928 209.649 32.1582 209.649 32.49C209.649 33.1092 209.317 33.6289 208.654 34.0491C207.99 34.4472 207.139 34.6463 206.099 34.6463C205.458 34.6463 204.805 34.4914 204.142 34.1818C203.501 33.8722 202.959 33.4852 202.516 33.0207C202.45 32.9544 202.328 32.7001 202.152 32.2577C201.975 31.8154 201.82 31.3399 201.687 30.8313C201.466 29.7918 201.355 28.3322 201.355 26.4523C201.355 25.634 201.4 24.5393 201.488 23.1681L199.896 23.0354Z" fill="#474752"/>
<path d="M212.501 22.8695C211.926 22.4715 211.639 22.0513 211.639 21.6089C211.639 21.2993 211.771 21.0118 212.037 20.7464C212.302 20.481 212.7 20.3483 213.231 20.3483C213.85 20.3483 214.403 20.5142 214.89 20.8459C215.398 21.1556 215.752 21.6089 215.951 22.2061C216.46 21.6089 217.035 21.1334 217.676 20.7796C218.34 20.4257 219.014 20.2488 219.7 20.2488C220.518 20.2488 221.259 20.47 221.922 20.9123C222.586 21.3546 222.918 21.9517 222.918 22.7037C222.918 23.1239 222.73 23.5551 222.354 23.9975C222 24.4398 221.635 24.6609 221.259 24.6609C221.06 24.6609 220.883 24.6167 220.728 24.5282C220.595 24.4177 220.43 24.2628 220.231 24.0638C220.009 23.8426 219.821 23.6878 219.667 23.5994C219.512 23.4888 219.335 23.4335 219.136 23.4335C218.782 23.4335 218.45 23.4888 218.141 23.5994C217.831 23.7099 217.621 23.8426 217.51 23.9975C217.156 24.5503 216.891 25.048 216.714 25.4903C216.559 25.9326 216.482 26.4081 216.482 26.9167C216.482 27.2927 216.471 27.5913 216.449 27.8124L216.416 29.7034C216.416 29.9909 216.427 30.3115 216.449 30.6654C216.471 31.0192 216.493 31.2846 216.515 31.4616C216.581 32.0587 216.615 32.6337 216.615 33.1866C216.615 33.5626 216.471 33.8943 216.183 34.1818C215.896 34.4693 215.542 34.6131 215.122 34.6131C214.458 34.6131 213.972 34.4914 213.662 34.2482C213.352 33.9828 213.198 33.5073 213.198 32.8217L213.165 30.6986C213.142 30.2784 213.131 29.6812 213.131 28.9072L213.165 26.7177C213.209 25.6561 213.231 24.7936 213.231 24.1301C213.231 23.8869 213.176 23.6657 213.065 23.4667C212.977 23.2676 212.789 23.0686 212.501 22.8695Z" fill="#474752"/>
<path d="M228.622 41.281C227.804 41.281 227.107 41.1373 226.532 40.8498C225.957 40.5844 225.526 40.2526 225.238 39.8545C224.973 39.4786 224.84 39.1468 224.84 38.8593C224.84 38.4612 224.984 38.1074 225.271 37.7978C225.559 37.5103 225.88 37.3665 226.233 37.3665C226.432 37.3665 226.62 37.4329 226.797 37.5656C226.996 37.6982 227.118 37.7757 227.162 37.7978C227.273 37.8862 227.417 38.0189 227.594 38.1959C227.771 38.3949 227.947 38.4944 228.124 38.4944C228.633 38.4944 229.042 38.1737 229.352 37.5324C229.661 36.891 229.96 35.8516 230.247 34.414C228.788 32.0034 227.406 29.5485 226.101 27.0494C224.796 24.5503 224.143 22.8585 224.143 21.9738C224.143 21.4209 224.343 21.0118 224.741 20.7464C225.139 20.481 225.592 20.3483 226.101 20.3483C226.477 20.3483 226.775 20.4257 226.996 20.5805C227.218 20.7132 227.395 20.9676 227.527 21.3435C228.146 23.2234 228.777 24.9042 229.418 26.386C230.059 27.8456 230.8 29.3163 231.641 30.7981C232.039 29.9135 232.514 28.4649 233.067 26.4523C233.399 25.2802 233.687 24.3292 233.93 23.5994C234.173 22.8474 234.45 22.1618 234.759 21.5426C234.958 21.1445 235.201 20.8238 235.489 20.5805C235.799 20.3373 236.13 20.2156 236.484 20.2156C236.882 20.2156 237.291 20.3594 237.712 20.6469C238.154 20.9123 238.375 21.233 238.375 21.6089C238.375 21.7195 238.298 21.9849 238.143 22.4051C237.28 24.3292 236.517 26.1869 235.854 27.9783C235.19 29.7476 234.571 31.6938 233.996 33.8169C233.642 34.9448 233.266 36.0396 232.868 37.1011C232.47 38.1848 232.194 38.8593 232.039 39.1247C231.574 39.744 231.077 40.2526 230.546 40.6507C230.015 41.0709 229.374 41.281 228.622 41.281Z" fill="#474752"/>
<path d="M264.823 16.1021C265.155 16.5002 265.387 16.8208 265.52 17.0641C265.653 17.3074 265.719 17.5396 265.719 17.7608C265.719 18.0262 265.542 18.3358 265.188 18.6896C264.857 19.0435 264.525 19.2204 264.193 19.2204C263.751 19.2204 263.397 19.1541 263.132 19.0214C262.866 18.8887 262.645 18.6786 262.468 18.3911C262.114 17.8603 261.683 17.4069 261.174 17.0309C260.666 16.6329 259.869 16.4338 258.786 16.4338C257.857 16.4338 256.795 16.6439 255.601 17.0641C254.429 17.4843 253.589 18.004 253.08 18.6233C252.638 19.1762 252.251 20.0166 251.919 21.1445C251.609 22.2724 251.454 23.3671 251.454 24.4287C251.454 25.7114 251.731 26.8946 252.284 27.9783C252.859 29.0399 253.677 29.8913 254.739 30.5327C255.822 31.1741 257.116 31.4947 258.62 31.4947C259.438 31.4947 260.279 31.3399 261.141 31.0303C262.026 30.6986 262.789 30.1678 263.43 29.438H263.397C263.795 29.0178 264.293 28.8077 264.89 28.8077C265.244 28.8077 265.575 28.9625 265.885 29.2721C266.217 29.5817 266.383 29.8913 266.383 30.201C266.383 30.5327 266.327 30.8313 266.217 31.0967C266.128 31.3399 265.951 31.6164 265.686 31.926C264.779 32.9433 263.707 33.64 262.468 34.016C261.23 34.3919 259.748 34.5799 258.023 34.5799C256.497 34.5799 254.949 34.215 253.378 33.4852C251.83 32.7553 250.636 31.8707 249.796 30.8313C249.353 30.1899 248.922 29.2721 248.502 28.0778C248.104 26.8615 247.905 25.8773 247.905 25.1254C247.905 23.2013 248.192 21.3767 248.767 19.6517C249.364 17.9045 250.249 16.5112 251.421 15.4718C252.195 14.7641 253.312 14.2333 254.772 13.8794C256.231 13.5256 257.569 13.3486 258.786 13.3486C260.268 13.3486 261.429 13.5587 262.269 13.979C263.132 14.377 263.983 15.0847 264.823 16.1021Z" fill="#474752"/>
<path d="M273.037 29.3716C273.037 30.212 273.158 30.8644 273.401 31.3289C273.667 31.7712 273.999 31.9923 274.397 31.9923C274.618 31.9923 274.828 31.9813 275.027 31.9592C275.226 31.9149 275.425 31.8928 275.624 31.8928C275.845 31.8928 276.033 32.0034 276.188 32.2246C276.365 32.4457 276.453 32.689 276.453 32.9544C276.453 33.4852 276.199 33.9054 275.69 34.215C275.204 34.5025 274.54 34.6463 273.7 34.6463C273.103 34.6463 272.495 34.4693 271.875 34.1155C271.278 33.7395 270.781 33.1645 270.383 32.3904C269.985 31.5943 269.786 30.6101 269.786 29.438C269.786 26.9167 269.83 24.7826 269.918 23.0354C270.029 20.9565 270.084 18.3358 270.084 15.1732C270.084 14.178 270.139 13.4813 270.25 13.0833C270.383 12.7736 270.593 12.5414 270.88 12.3866C271.19 12.2097 271.511 12.1212 271.842 12.1212C272.174 12.1212 272.462 12.1765 272.705 12.2871C272.97 12.3977 273.147 12.5746 273.236 12.8179C273.324 13.0833 273.379 13.3486 273.401 13.614C273.446 13.8573 273.468 14.2112 273.468 14.6756C273.468 15.5824 273.435 16.4559 273.368 17.2963C273.324 18.3137 273.302 19.0545 273.302 19.519C273.125 23.4114 273.037 26.6956 273.037 29.3716Z" fill="#474752"/>
<path d="M278.086 23.334C277.909 23.334 277.743 23.2676 277.588 23.1349C277.455 22.9801 277.389 22.8032 277.389 22.6041C277.389 22.0955 277.61 21.62 278.053 21.1777C278.185 21.1113 278.451 21.0007 278.849 20.8459C279.247 20.6911 279.601 20.6137 279.91 20.6137C280.751 20.6137 281.436 20.8459 281.967 21.3104C282.498 21.7527 282.763 22.394 282.763 23.2345C282.763 23.4777 282.719 23.9974 282.631 24.7936C282.542 25.7225 282.498 26.4413 282.498 26.9499C282.498 28.498 282.708 29.7476 283.128 30.6986C283.283 31.0082 283.526 31.2515 283.858 31.4284C284.19 31.6053 284.488 31.6938 284.754 31.6938C285.395 31.6938 285.915 31.5832 286.313 31.362C286.711 31.1409 287.142 30.787 287.607 30.3005C288.071 29.8139 288.37 29.261 288.502 28.6418C288.657 28.0225 288.768 27.1711 288.834 26.0874C288.878 25.3797 288.923 24.86 288.967 24.5282C289.077 23.4667 289.133 22.5599 289.133 21.808C289.133 21.3214 289.265 20.9233 289.531 20.6137C289.796 20.282 290.161 20.1161 290.625 20.1161C290.891 20.1161 291.189 20.2046 291.521 20.3815C291.875 20.5363 292.107 20.7243 292.218 20.9455C292.35 21.1666 292.417 21.5315 292.417 22.0402C292.417 22.3056 292.384 22.5599 292.317 22.8032C292.162 23.3561 292.085 24.0196 292.085 24.7936L292.118 26.5187C292.118 28.0889 292.229 29.25 292.45 30.0019C292.561 30.3558 292.715 30.7207 292.914 31.0967C293.113 31.4505 293.301 31.7491 293.478 31.9923C293.921 32.4789 294.208 32.8217 294.341 33.0207C294.474 33.1977 294.54 33.3746 294.54 33.5515C294.54 33.8169 294.407 34.0712 294.142 34.3145C293.899 34.5357 293.633 34.6463 293.346 34.6463C292.527 34.6463 291.82 34.3698 291.223 33.8169C290.625 33.264 290.183 32.5452 289.896 31.6606C289.144 32.5231 288.447 33.2198 287.806 33.7506C287.363 34.0602 286.821 34.2924 286.18 34.4472C285.539 34.5799 284.897 34.6463 284.256 34.6463C283.394 34.6463 282.52 34.2924 281.635 33.5847C280.751 32.877 280.154 32.0587 279.844 31.1298C279.822 31.0856 279.755 30.9087 279.645 30.599C279.556 30.2894 279.512 29.825 279.512 29.2057C279.512 28.3875 279.556 27.3591 279.645 26.1206C279.711 25.3244 279.744 24.5946 279.744 23.9311C279.744 23.7321 279.667 23.5662 279.512 23.4335C279.379 23.3008 279.225 23.2345 279.048 23.2345C278.915 23.2345 278.76 23.2566 278.583 23.3008C278.428 23.3229 278.263 23.334 278.086 23.334Z" fill="#474752"/>
<path d="M297.848 28.5423C297.848 27.3038 297.86 26.3639 297.882 25.7225L297.915 22.571C297.915 21.2883 297.882 19.8839 297.815 18.3579C297.793 17.8935 297.716 17.2521 297.583 16.4338C297.406 15.1953 297.318 14.2665 297.318 13.6472C297.318 12.6299 297.826 12.1212 298.844 12.1212C299.485 12.1212 299.938 12.2981 300.204 12.652C300.491 12.9837 300.69 13.5145 300.801 14.2443C301.022 15.7703 301.133 17.5617 301.133 19.6185C301.133 20.2377 301.111 21.1666 301.066 22.4051C301.487 21.7416 302.028 21.2219 302.692 20.8459C303.377 20.47 304.052 20.282 304.715 20.282C306.64 20.282 308.298 21.0782 309.692 22.6705C310.068 23.2234 310.399 23.8869 310.687 24.6609C310.996 25.4129 311.151 26.0653 311.151 26.6182C311.151 27.5913 311.041 28.487 310.819 29.3053C310.62 30.1236 310.256 30.9197 309.725 31.6938C309.194 32.4678 308.519 33.0981 307.701 33.5847C306.905 34.0712 305.976 34.3145 304.915 34.3145C303.986 34.3145 303.145 34.1265 302.393 33.7506C301.663 33.3746 301.077 32.877 300.635 32.2577C300.525 32.8106 300.281 33.3635 299.905 33.9164C299.529 34.4472 299.098 34.7126 298.612 34.7126C298.213 34.7126 297.882 34.6131 297.616 34.414C297.351 34.1929 297.218 33.8722 297.218 33.452C297.218 33.1424 297.285 32.7553 297.417 32.2909C297.55 31.6496 297.649 31.0635 297.716 30.5327C297.804 29.9798 297.848 29.3163 297.848 28.5423ZM304.085 31.5611C305.169 31.5611 306.076 31.1851 306.805 30.4332C307.535 29.6591 307.9 28.6197 307.9 27.3148C307.9 26.1206 307.579 25.0922 306.938 24.2297C306.717 23.9422 306.396 23.7099 305.976 23.533C305.578 23.3561 305.18 23.2676 304.782 23.2676C303.853 23.2676 303.068 23.5441 302.426 24.097C301.785 24.6278 301.42 25.3686 301.332 26.3196C301.243 27.6023 301.199 28.7081 301.199 29.637C301.464 30.1457 301.863 30.599 302.393 30.9971C302.946 31.3731 303.51 31.5611 304.085 31.5611Z" fill="#474752"/>
<path d="M19.5195 9.09091C19.5195 9.09091 11.0347 18.3254 11.0347 24.2424C11.0347 30.1595 19.5195 39.3939 19.5195 39.3939" stroke="#474752" stroke-width="2.4" stroke-linecap="round"/>
<path d="M29.8223 9.09091C29.8223 9.09091 21.3374 18.3254 21.3374 24.2424C21.3374 30.1595 29.8223 39.3939 29.8223 39.3939" stroke="#474752" stroke-width="2.4" stroke-linecap="round"/>
<path d="M40.127 9.09091C40.127 9.09091 31.6421 18.3254 31.6421 24.2424C31.6421 30.1595 40.127 39.3939 40.127 39.3939" stroke="#474752" stroke-width="2.4" stroke-linecap="round"/>
<path d="M11.0352 23.6364H21.3382" stroke="#474752" stroke-width="2.4"/>
</svg>
