<svg width="252" height="50" viewBox="0 0 252 50" fill="none" xmlns="http://www.w3.org/2000/svg">
<path d="M78.0006 31.0649V18.1558C78.0006 17.8615 77.9486 17.6537 77.8447 17.5325C77.7581 17.4113 77.5936 17.342 77.3512 17.3247L75.7148 17.0909V16.4156C75.888 16.4675 77.7062 16.4935 81.1694 16.4935C82.191 16.4935 83.0049 16.4675 83.6109 16.4156V17.1169L81.9746 17.3506C81.7322 17.368 81.559 17.4286 81.4551 17.5325C81.3685 17.6364 81.3252 17.8442 81.3252 18.1558V31.0649C81.3252 31.3766 81.3685 31.5758 81.4551 31.6623C81.5417 31.7489 81.7148 31.8009 81.9746 31.8182L83.6109 31.948V32.8312C83.2646 32.7965 82.7625 32.7706 82.1045 32.7532C81.4638 32.7359 80.6499 32.7273 79.6629 32.7273C78.6759 32.7273 77.8534 32.7359 77.1954 32.7532C76.5547 32.7706 76.0612 32.7965 75.7148 32.8312V31.948L77.3512 31.8182C77.6109 31.7835 77.7841 31.7229 77.8707 31.6364C77.9573 31.5498 78.0006 31.3593 78.0006 31.0649Z" fill="#474752"/>
<path d="M97.7542 32.8052C96.8538 32.7532 95.8494 32.7273 94.7412 32.7273C93.6503 32.7273 92.6546 32.7532 91.7542 32.8052V32.1558L92.6633 31.948C93.0443 31.8961 93.2347 31.5584 93.2347 30.9351V26.5714C93.2347 26.1905 93.2174 25.8615 93.1828 25.5844C93.1655 25.29 93.1049 25.0476 93.001 24.8571C92.9144 24.6493 92.7672 24.5022 92.5594 24.4156C92.3689 24.3117 92.1005 24.2597 91.7542 24.2597C91.3559 24.2597 90.9317 24.3896 90.4815 24.6493C90.0486 24.8918 89.6849 25.1861 89.3906 25.5325V31.2208C89.3906 31.4978 89.5984 31.6883 90.014 31.7922L90.7672 32.1558V32.8052C90.5248 32.7706 90.291 32.7532 90.0659 32.7532C89.8408 32.7359 89.5724 32.7273 89.2607 32.7273H87.6763C87.1222 32.7273 86.5594 32.7359 85.988 32.7532C85.4339 32.7532 85.0269 32.7706 84.7672 32.8052V32.1558L85.8841 31.8961C86.0572 31.8615 86.1871 31.7835 86.2737 31.6623C86.3603 31.5411 86.4036 31.3593 86.4036 31.1169V26C86.4036 25.4632 86.291 25.0996 86.0659 24.9091C85.8581 24.7186 85.4772 24.5801 84.923 24.4935V24C85.2001 23.9307 85.5204 23.8442 85.8841 23.7403C86.265 23.6364 86.6373 23.5065 87.001 23.3506C87.3646 23.1775 87.7023 22.9784 88.014 22.7532C88.3256 22.5108 88.5594 22.2251 88.7152 21.8961H89.3906V24.4156C89.9101 23.7749 90.4728 23.2727 91.0789 22.9091C91.6849 22.5455 92.291 22.3636 92.8971 22.3636C93.9014 22.3636 94.7066 22.658 95.3127 23.2467C95.9187 23.8355 96.2217 24.7273 96.2217 25.9221V30.8571C96.2217 31.2035 96.265 31.4545 96.3516 31.6104C96.4382 31.7662 96.6114 31.8788 96.8711 31.948L97.7542 32.1558V32.8052Z" fill="#474752"/>
<path d="M113.163 32.8312C112.886 32.7965 112.471 32.7706 111.917 32.7532C111.38 32.7359 110.765 32.7273 110.072 32.7273C109.38 32.7273 108.756 32.7359 108.202 32.7532C107.648 32.7706 107.241 32.7965 106.981 32.8312V32.1818L107.968 31.8961C108.505 31.7922 108.774 31.4805 108.774 30.961V25.013C108.774 24.5974 108.67 24.2944 108.462 24.1039C108.289 23.948 107.968 23.8095 107.501 23.6883V23.7662L103.735 23.8701V30.1558C103.735 31.1948 104.098 31.7749 104.826 31.8961L106.254 32.1558V32.8052C105.163 32.7532 104.012 32.7273 102.8 32.7273H101.994C101.406 32.7273 100.817 32.7359 100.228 32.7532C99.6395 32.7532 99.2152 32.7706 98.9555 32.8052V32.1818L99.7607 32C100.02 31.948 100.22 31.8961 100.358 31.8442C100.497 31.7749 100.601 31.6883 100.67 31.5844C100.739 31.4632 100.782 31.3074 100.8 31.1169C100.817 30.9264 100.826 30.6753 100.826 30.3636V24.1818C100.497 24.1126 99.8646 24.0606 98.9295 24.026V23.6364C99.3451 23.4632 99.6741 23.316 99.9165 23.1948C100.159 23.0563 100.341 22.9351 100.462 22.8312C100.601 22.7273 100.687 22.6234 100.722 22.5195C100.756 22.4156 100.774 22.303 100.774 22.1818C100.774 22.026 100.791 21.7576 100.826 21.3766C100.86 20.9784 100.938 20.5368 101.059 20.0519C101.198 19.5498 101.388 19.039 101.631 18.5195C101.873 18 102.194 17.5238 102.592 17.0909C103.007 16.658 103.51 16.303 104.098 16.026C104.687 15.7316 105.397 15.5844 106.228 15.5844C106.367 15.5844 106.497 15.5931 106.618 15.6104C106.756 15.6104 106.895 15.619 107.033 15.6364C107.588 15.7229 108.064 15.8788 108.462 16.1039C108.86 16.329 109.059 16.684 109.059 17.1688C109.059 17.6537 108.93 18.0433 108.67 18.3377C108.427 18.632 108.064 18.7792 107.579 18.7792C107.198 18.7792 106.886 18.684 106.644 18.4935C106.419 18.2857 106.22 18.0693 106.046 17.8442C105.891 17.6017 105.752 17.3853 105.631 17.1948C105.51 16.987 105.388 16.8831 105.267 16.8831C104.817 16.8831 104.479 17.013 104.254 17.2727C104.046 17.5151 103.891 17.8355 103.787 18.2338C103.7 18.6147 103.657 19.0476 103.657 19.5325V22.1299C103.657 22.4242 103.665 22.6407 103.683 22.7792L107.501 22.8571V22.961L108.202 22.7273C108.583 22.5887 108.956 22.4416 109.319 22.2857C109.683 22.1126 110.012 21.9307 110.306 21.7403C110.618 21.5325 110.86 21.3247 111.033 21.1169C111.155 21.1169 111.267 21.1255 111.371 21.1429C111.475 21.1429 111.588 21.1429 111.709 21.1429V31.039C111.709 31.2987 111.743 31.4892 111.813 31.6104C111.899 31.7316 112.055 31.8182 112.28 31.8701L113.163 32.1818V32.8312Z" fill="#474752"/>
<path d="M127.33 32.8052C126.43 32.7532 125.425 32.7273 124.317 32.7273C123.226 32.7273 122.231 32.7532 121.33 32.8052V32.1558L122.239 31.948C122.62 31.8961 122.811 31.5584 122.811 30.9351V26.5714C122.811 26.1905 122.793 25.8615 122.759 25.5844C122.741 25.29 122.681 25.0476 122.577 24.8571C122.49 24.6493 122.343 24.5022 122.135 24.4156C121.945 24.3117 121.676 24.2597 121.33 24.2597C120.932 24.2597 120.508 24.3896 120.057 24.6493C119.624 24.8918 119.261 25.1861 118.966 25.5325V31.2208C118.966 31.4978 119.174 31.6883 119.59 31.7922L120.343 32.1558V32.8052C120.101 32.7706 119.867 32.7532 119.642 32.7532C119.417 32.7359 119.148 32.7273 118.837 32.7273H117.252C116.698 32.7273 116.135 32.7359 115.564 32.7532C115.01 32.7532 114.603 32.7706 114.343 32.8052V32.1558L115.46 31.8961C115.633 31.8615 115.763 31.7835 115.85 31.6623C115.936 31.5411 115.979 31.3593 115.979 31.1169V26C115.979 25.4632 115.867 25.0996 115.642 24.9091C115.434 24.7186 115.053 24.5801 114.499 24.4935V24C114.776 23.9307 115.096 23.8442 115.46 23.7403C115.841 23.6364 116.213 23.5065 116.577 23.3506C116.94 23.1775 117.278 22.9784 117.59 22.7532C117.902 22.5108 118.135 22.2251 118.291 21.8961H118.966V24.4156C119.486 23.7749 120.049 23.2727 120.655 22.9091C121.261 22.5455 121.867 22.3636 122.473 22.3636C123.477 22.3636 124.282 22.658 124.889 23.2467C125.495 23.8355 125.798 24.7273 125.798 25.9221V30.8571C125.798 31.2035 125.841 31.4545 125.928 31.6104C126.014 31.7662 126.187 31.8788 126.447 31.948L127.33 32.1558V32.8052Z" fill="#474752"/>
<path d="M131.7 16.7532C132.15 16.7532 132.531 16.9264 132.843 17.2727C133.172 17.6017 133.337 17.9913 133.337 18.4416C133.337 18.8398 133.172 19.2035 132.843 19.5325C132.531 19.8615 132.142 20.026 131.674 20.026C131.224 20.026 130.843 19.8788 130.531 19.5844C130.237 19.2727 130.09 18.8918 130.09 18.4416C130.09 17.9913 130.246 17.6017 130.557 17.2727C130.869 16.9264 131.25 16.7532 131.7 16.7532ZM134.324 32.8312C134.047 32.7965 133.631 32.7706 133.077 32.7532C132.523 32.7359 131.899 32.7273 131.207 32.7273C130.514 32.7273 129.891 32.7359 129.337 32.7532C128.782 32.7706 128.367 32.7965 128.09 32.8312V32.1558L129.077 31.8961C129.614 31.7922 129.882 31.4719 129.882 30.9351V26.2597C129.882 25.8442 129.778 25.5411 129.57 25.3506C129.363 25.1602 128.947 24.9957 128.324 24.8571V24.2338C128.618 24.1645 128.956 24.0693 129.337 23.948C129.718 23.8095 130.09 23.6623 130.453 23.5065C130.817 23.3333 131.155 23.1515 131.466 22.961C131.778 22.7532 132.021 22.5455 132.194 22.3377C132.315 22.3377 132.428 22.3463 132.531 22.3636C132.635 22.3636 132.748 22.3636 132.869 22.3636V31.013C132.869 31.2727 132.904 31.4719 132.973 31.6104C133.06 31.7316 133.215 31.8182 133.44 31.8701L134.324 32.1558V32.8312Z" fill="#474752"/>
<path d="M139.605 20.2078H140.176C140.176 20.6753 140.176 21.1429 140.176 21.6104C140.193 22.0606 140.202 22.5195 140.202 22.987L143.449 22.9091V24.1299L140.202 24.2338V28.9091C140.202 29.6883 140.297 30.2597 140.488 30.6234C140.678 30.9697 141.077 31.1429 141.683 31.1429C141.942 31.1429 142.228 31.1169 142.54 31.0649C142.851 30.9957 143.189 30.8052 143.553 30.4935L143.786 30.8571C143.665 31.0996 143.501 31.3593 143.293 31.6364C143.085 31.8961 142.825 32.1385 142.514 32.3636C142.219 32.5887 141.882 32.7792 141.501 32.9351C141.12 33.0736 140.687 33.1429 140.202 33.1429C139.215 33.1429 138.479 32.9004 137.994 32.4156C137.509 31.9134 137.267 31.0649 137.267 29.8701V24.2857C137.025 24.2857 136.791 24.2944 136.566 24.3117C136.341 24.3117 136.107 24.3117 135.864 24.3117C135.622 24.3117 135.492 24.1991 135.475 23.974C135.475 23.7489 135.596 23.5844 135.838 23.4805C136.219 23.3247 136.566 23.1602 136.877 22.987C137.206 22.8138 137.475 22.6407 137.683 22.4675C137.925 22.2771 138.245 21.9913 138.644 21.6104C139.059 21.2294 139.38 20.7619 139.605 20.2078Z" fill="#474752"/>
<path d="M149.695 35.7143C149.383 36.4935 148.924 37.0563 148.318 37.4026C147.729 37.7489 147.097 37.9221 146.422 37.9221C146.232 37.9221 146.041 37.8961 145.851 37.8442C145.66 37.8095 145.496 37.7403 145.357 37.6364C145.236 37.5498 145.132 37.4372 145.045 37.2987C144.976 37.1775 144.942 37.0303 144.942 36.8571C144.942 36.3723 145.071 36.0519 145.331 35.8961C145.591 35.7576 145.903 35.6883 146.266 35.6883C146.63 35.6883 147.002 35.7316 147.383 35.8182C147.764 35.9221 148.05 35.974 148.24 35.974C148.327 35.974 148.431 35.9307 148.552 35.8442C148.673 35.7576 148.794 35.6364 148.916 35.4805C149.037 35.342 149.132 35.1688 149.201 34.961C149.288 34.7532 149.331 34.5281 149.331 34.2857C149.331 34.0779 149.288 33.8009 149.201 33.4545C149.115 33.1602 149.011 32.8658 148.89 32.5714C148.786 32.2771 148.682 32.0087 148.578 31.7662L145.175 24.2857C144.985 23.8701 144.76 23.619 144.5 23.5325L143.98 23.3506V22.7013C146.18 22.8745 148.006 22.8745 149.461 22.7013V23.3506C148.993 23.3506 148.742 23.3939 148.708 23.4805C148.673 23.5671 148.69 23.697 148.76 23.8701L151.123 29.8701L153.175 24.8052C153.262 24.5628 153.296 24.3117 153.279 24.0519C153.279 23.7922 153.132 23.6277 152.838 23.5584L151.383 23.2208V22.7013C152.907 22.8745 154.5 22.8745 156.162 22.7013V23.2208L155.331 23.4286C155.193 23.4632 155.071 23.5151 154.967 23.5844C154.881 23.6364 154.786 23.7229 154.682 23.8442C154.595 23.948 154.5 24.1039 154.396 24.3117C154.309 24.5022 154.206 24.7532 154.084 25.0649L149.695 35.7143Z" fill="#474752"/>
<path d="M163.071 16.4935C163.919 16.4935 164.629 16.4935 165.201 16.4935C165.772 16.4762 166.205 16.4589 166.5 16.4416L170.266 16.2338C170.595 16.2164 170.82 16.2078 170.941 16.2078C171.08 16.2078 171.184 16.2078 171.253 16.2078C172.067 16.2078 172.829 16.303 173.538 16.4935C174.248 16.6667 174.863 16.9524 175.383 17.3506C175.902 17.7316 176.309 18.2251 176.603 18.8312C176.915 19.4372 177.071 20.1558 177.071 20.987C177.071 21.7489 176.915 22.4156 176.603 22.987C176.309 23.5584 175.911 24.0433 175.409 24.4416C174.924 24.8225 174.361 25.1082 173.72 25.2987C173.097 25.4892 172.465 25.5844 171.824 25.5844C171.322 25.5844 170.88 25.5151 170.5 25.3766C170.119 25.2381 169.764 25.0043 169.435 24.6753L169.487 24.4416C169.712 24.5281 169.954 24.5887 170.214 24.6234C170.474 24.6407 170.699 24.6493 170.889 24.6493C171.322 24.6493 171.712 24.5887 172.058 24.4675C172.422 24.3463 172.733 24.1558 172.993 23.8961C173.253 23.619 173.452 23.2554 173.59 22.8052C173.746 22.355 173.824 21.7922 173.824 21.1169C173.824 19.974 173.538 19.0476 172.967 18.3377C172.413 17.6104 171.538 17.2467 170.344 17.2467C170.101 17.2467 169.893 17.2554 169.72 17.2727C169.564 17.2727 169.417 17.2814 169.279 17.2987C169.14 17.316 169.019 17.342 168.915 17.3766C168.829 17.3939 168.742 17.4199 168.655 17.4545V30.7792C168.655 31.039 168.707 31.2641 168.811 31.4545C168.932 31.6277 169.184 31.7489 169.564 31.8182L171.123 32.1039V32.8312C170.396 32.7965 169.703 32.7706 169.045 32.7532C168.404 32.7359 167.85 32.7273 167.383 32.7273C166.846 32.7273 166.292 32.7359 165.72 32.7532C165.166 32.7706 164.456 32.7879 163.59 32.8052V32.0779L165.045 31.7922C165.305 31.7403 165.478 31.645 165.564 31.5065C165.651 31.368 165.694 31.1342 165.694 30.8052V19.0909C165.694 18.4329 165.487 17.9913 165.071 17.7662C164.673 17.5411 164.006 17.3766 163.071 17.2727V16.4935Z" fill="#474752"/>
<path d="M182.428 33.1169C181.718 33.1169 181.103 32.9957 180.584 32.7532C180.082 32.4935 179.666 32.1472 179.337 31.7143C179.025 31.2814 178.792 30.7706 178.636 30.1818C178.48 29.5931 178.402 28.961 178.402 28.2857C178.402 27.368 178.54 26.5541 178.818 25.8442C179.095 25.1342 179.467 24.5368 179.934 24.0519C180.402 23.5671 180.947 23.2035 181.571 22.961C182.194 22.7013 182.852 22.5714 183.545 22.5714C184.03 22.5714 184.454 22.6061 184.818 22.6753C185.181 22.7446 185.484 22.8225 185.727 22.9091C186.038 22.9957 186.281 23.0996 186.454 23.2208L188.168 22.2597L188.402 22.3377V30.3377C188.402 31.013 188.696 31.342 189.285 31.3247C189.424 31.3247 189.527 31.3074 189.597 31.2727C189.683 31.2208 189.761 31.1775 189.831 31.1429C189.882 31.1082 189.943 31.0563 190.012 30.987L190.168 31.3506C190.047 31.6796 189.865 31.974 189.623 32.2338C189.432 32.4589 189.172 32.6667 188.843 32.8571C188.532 33.0303 188.142 33.1169 187.675 33.1169C186.895 33.1169 186.35 32.8918 186.038 32.4416C185.727 31.974 185.571 31.4113 185.571 30.7532V30.1299C185.484 30.5108 185.363 30.8831 185.207 31.2467C185.051 31.5931 184.843 31.9048 184.584 32.1818C184.341 32.4589 184.038 32.684 183.675 32.8571C183.328 33.0303 182.913 33.1169 182.428 33.1169ZM185.571 27.1429C185.571 26.7792 185.553 26.3983 185.519 26C185.484 25.6017 185.406 25.2381 185.285 24.9091C185.164 24.5628 184.973 24.2771 184.714 24.0519C184.471 23.8268 184.134 23.7143 183.701 23.7143C183.458 23.7143 183.198 23.7835 182.921 23.9221C182.662 24.0433 182.419 24.2511 182.194 24.5455C181.969 24.8398 181.779 25.2467 181.623 25.7662C181.484 26.2684 181.415 26.8918 181.415 27.6364C181.415 28.1558 181.45 28.6493 181.519 29.1169C181.605 29.5844 181.735 29.9913 181.908 30.3377C182.082 30.684 182.289 30.961 182.532 31.1688C182.792 31.3593 183.095 31.4545 183.441 31.4545C183.77 31.4545 184.064 31.342 184.324 31.1169C184.601 30.8918 184.826 30.5974 184.999 30.2338C185.19 29.8528 185.328 29.4199 185.415 28.9351C185.519 28.4502 185.571 27.948 185.571 27.4286V27.1429Z" fill="#474752"/>
<path d="M191.33 32.8312V32.4156L192.11 32.1818C192.456 32.0779 192.672 31.948 192.759 31.7922C192.863 31.619 192.915 31.3074 192.915 30.8571V25.8701C192.915 25.5238 192.845 25.2641 192.707 25.0909C192.568 24.9177 192.239 24.7965 191.72 24.7273L191.278 24.6753V24.1818C191.607 24.0952 191.962 23.9827 192.343 23.8442C192.742 23.6883 193.123 23.5151 193.486 23.3247C193.867 23.1169 194.213 22.8831 194.525 22.6234C194.854 22.3636 195.123 22.0779 195.33 21.7662H195.798C195.798 22.2684 195.806 22.7359 195.824 23.1688C195.841 23.6017 195.867 24.1039 195.902 24.6753C196.04 24.3809 196.17 24.1212 196.291 23.8961C196.43 23.671 196.638 23.3939 196.915 23.0649C197.174 22.7532 197.443 22.5628 197.72 22.4935C197.997 22.4069 198.248 22.3636 198.473 22.3636C198.906 22.3636 199.287 22.4935 199.616 22.7532C199.945 23.013 200.11 23.4459 200.11 24.0519C200.11 24.6061 199.988 25.0563 199.746 25.4026C199.503 25.7316 199.14 25.8961 198.655 25.8961C198.413 25.8961 198.205 25.8268 198.032 25.6883C197.876 25.5498 197.737 25.4026 197.616 25.2467C197.495 25.0909 197.382 24.9437 197.278 24.8052C197.192 24.6667 197.097 24.5974 196.993 24.5974C196.75 24.5974 196.534 24.7619 196.343 25.0909C196.17 25.4199 196.049 25.8268 195.98 26.3117C195.893 26.7273 195.867 27.0563 195.902 27.2987V30.9091C195.902 31.3074 195.98 31.5758 196.135 31.7143C196.291 31.8528 196.603 31.9913 197.071 32.1299L197.928 32.3896V32.8052C197.547 32.7706 197.114 32.7532 196.629 32.7532C196.144 32.7359 195.685 32.7273 195.252 32.7273H194.655C194.084 32.7273 193.512 32.7359 192.941 32.7532C192.369 32.7706 191.832 32.7965 191.33 32.8312Z" fill="#474752"/>
<path d="M214.413 32.8312C214.084 32.7965 213.617 32.7706 213.011 32.7532C212.422 32.7359 211.825 32.7273 211.218 32.7273C210.612 32.7273 210.032 32.7359 209.478 32.7532C208.941 32.7706 208.509 32.7965 208.18 32.8312V32.1558L208.881 32.0519C209.262 32 209.452 31.9221 209.452 31.8182C209.452 31.6797 209.305 31.4113 209.011 31.013C208.734 30.6147 208.318 30.0519 207.764 29.3247C207.487 28.9784 207.21 28.6753 206.933 28.4156C206.673 28.1385 206.413 28 206.154 28H205.92V30.9091C205.92 31.342 205.963 31.619 206.05 31.7403C206.154 31.8442 206.327 31.9221 206.569 31.974L207.296 32.1558V32.8312C207.158 32.8138 206.967 32.7965 206.725 32.7792C206.5 32.7619 206.24 32.7532 205.946 32.7532C205.669 32.7359 205.374 32.7273 205.063 32.7273C204.768 32.7273 204.483 32.7273 204.206 32.7273C203.651 32.7273 203.089 32.7359 202.517 32.7532C201.946 32.7706 201.522 32.7965 201.244 32.8312V32.1558L202.205 32C202.517 31.948 202.716 31.8701 202.803 31.7662C202.889 31.645 202.933 31.3593 202.933 30.9091V18.5195C202.933 18.3117 202.915 18.1472 202.881 18.026C202.846 17.9048 202.768 17.8095 202.647 17.7403C202.543 17.6537 202.387 17.5844 202.18 17.5325C201.972 17.4805 201.686 17.4286 201.322 17.3766V16.7532C201.547 16.7013 201.842 16.6407 202.205 16.5714C202.586 16.5022 202.976 16.4242 203.374 16.3377C203.79 16.2338 204.188 16.1212 204.569 16C204.95 15.8788 205.262 15.7403 205.504 15.5844H205.92V27.039C206.093 27.039 206.249 27.0216 206.387 26.987C206.543 26.9351 206.699 26.8571 206.855 26.7532C207.011 26.6493 207.184 26.5195 207.374 26.3636C207.565 26.1905 207.807 25.9827 208.102 25.7403C208.69 25.2727 209.097 24.9437 209.322 24.7532C209.547 24.5455 209.66 24.3636 209.66 24.2078C209.66 23.8442 209.106 23.5844 207.998 23.4286V22.8312H213.53V23.4286C212.924 23.4978 212.344 23.645 211.79 23.8701C211.253 24.0779 210.76 24.3896 210.309 24.8052L208.673 26.0779C209.037 26.5455 209.435 27.0736 209.868 27.6623C210.301 28.2511 210.725 28.8225 211.141 29.3766C211.573 29.9307 211.989 30.4329 212.387 30.8831C212.803 31.316 213.167 31.619 213.478 31.7922C213.565 31.8442 213.643 31.8874 213.712 31.9221C213.799 31.9394 213.876 31.9654 213.946 32L214.413 32.1558V32.8312Z" fill="#474752"/>
<path d="M224.558 26.6234H218.116C218.081 26.7965 218.055 26.9004 218.038 26.9351C218.038 26.9697 218.038 27.0736 218.038 27.2467C218.038 27.8009 218.116 28.3117 218.272 28.7792C218.428 29.2294 218.644 29.6277 218.921 29.974C219.216 30.303 219.562 30.5628 219.96 30.7532C220.358 30.9437 220.809 31.039 221.311 31.039C221.917 31.039 222.471 30.961 222.973 30.8052C223.493 30.632 224.038 30.2684 224.61 29.7143L224.713 30.1039C224.506 30.5022 224.263 30.8831 223.986 31.2467C223.726 31.6104 223.406 31.9307 223.025 32.2078C222.644 32.4848 222.194 32.71 221.674 32.8831C221.172 33.0563 220.575 33.1429 219.882 33.1429C219.155 33.1429 218.488 33.0216 217.882 32.7792C217.276 32.5195 216.757 32.1558 216.324 31.6883C215.908 31.2208 215.579 30.658 215.337 30C215.112 29.342 214.999 28.6061 214.999 27.7922C214.999 26.9784 215.12 26.2424 215.363 25.5844C215.623 24.9091 215.977 24.3377 216.428 23.8701C216.895 23.3853 217.458 23.013 218.116 22.7532C218.774 22.4935 219.51 22.3636 220.324 22.3636C221.068 22.3636 221.7 22.4762 222.22 22.7013C222.739 22.9264 223.164 23.2381 223.493 23.6364C223.839 24.0173 224.09 24.4675 224.246 24.987C224.419 25.5065 224.523 26.0519 224.558 26.6234ZM218.246 25.6623H220.687C221.155 25.6623 221.389 25.4372 221.389 24.987C221.389 24.4848 221.311 24.0606 221.155 23.7143C220.999 23.3506 220.687 23.1688 220.22 23.1688C219.233 23.1688 218.575 24 218.246 25.6623Z" fill="#474752"/>
<path d="M226.005 32.8312V32.4156L226.784 32.1818C227.13 32.0779 227.347 31.948 227.433 31.7922C227.537 31.619 227.589 31.3074 227.589 30.8571V25.8701C227.589 25.5238 227.52 25.2641 227.381 25.0909C227.243 24.9177 226.914 24.7965 226.394 24.7273L225.953 24.6753V24.1818C226.282 24.0952 226.637 23.9827 227.018 23.8442C227.416 23.6883 227.797 23.5151 228.16 23.3247C228.541 23.1169 228.888 22.8831 229.199 22.6234C229.528 22.3636 229.797 22.0779 230.005 21.7662H230.472C230.472 22.2684 230.481 22.7359 230.498 23.1688C230.515 23.6017 230.541 24.1039 230.576 24.6753C230.715 24.3809 230.844 24.1212 230.966 23.8961C231.104 23.671 231.312 23.3939 231.589 23.0649C231.849 22.7532 232.117 22.5628 232.394 22.4935C232.671 22.4069 232.922 22.3636 233.147 22.3636C233.58 22.3636 233.961 22.4935 234.29 22.7532C234.619 23.013 234.784 23.4459 234.784 24.0519C234.784 24.6061 234.663 25.0563 234.42 25.4026C234.178 25.7316 233.814 25.8961 233.329 25.8961C233.087 25.8961 232.879 25.8268 232.706 25.6883C232.55 25.5498 232.412 25.4026 232.29 25.2467C232.169 25.0909 232.057 24.9437 231.953 24.8052C231.866 24.6667 231.771 24.5974 231.667 24.5974C231.425 24.5974 231.208 24.7619 231.018 25.0909C230.844 25.4199 230.723 25.8268 230.654 26.3117C230.567 26.7273 230.541 27.0563 230.576 27.2987V30.9091C230.576 31.3074 230.654 31.5758 230.81 31.7143C230.966 31.8528 231.277 31.9913 231.745 32.1299L232.602 32.3896V32.8052C232.221 32.7706 231.788 32.7532 231.303 32.7532C230.818 32.7359 230.36 32.7273 229.927 32.7273H229.329C228.758 32.7273 228.186 32.7359 227.615 32.7532C227.044 32.7706 226.507 32.7965 226.005 32.8312Z" fill="#474752"/>
<path d="M29.6426 12.8571C21.4551 12.8571 17.1426 19.1696 17.1426 25.3571C17.1426 31.5446 21.4551 37.8571 29.6426 37.8571C34.5801 37.8571 38.5176 34.3571 42.1426 30.2321C45.7676 34.3571 49.5801 37.8571 54.6426 37.8571C62.8301 37.8571 67.1426 31.5446 67.1426 25.3571C67.1426 19.1696 62.8301 12.8571 54.6426 12.8571C49.5801 12.8571 45.7676 16.3571 42.1426 20.4821C38.5176 16.3571 34.5801 12.8571 29.6426 12.8571ZM29.6426 19.1071C32.2676 19.1071 35.1426 22.0446 38.0176 25.3571C35.1426 28.6696 32.2676 31.6071 29.6426 31.6071C25.0176 31.6071 23.3926 28.2321 23.3926 25.3571C23.3926 22.4821 25.0176 19.1071 29.6426 19.1071ZM54.6426 19.1071C59.2676 19.1071 60.8926 22.4821 60.8926 25.3571C60.8926 28.2321 59.2676 31.6071 54.6426 31.6071C51.9551 31.6071 49.0801 28.6696 46.2676 25.3571C49.1426 22.0446 51.9551 19.1071 54.6426 19.1071Z" fill="#474752"/>
<path d="M32.8569 25C32.8569 25 31.5777 27.1429 29.9997 27.1429C28.4218 27.1429 27.1426 26.1835 27.1426 25C27.1426 23.8165 28.4218 22.8571 29.9997 22.8571C31.5777 22.8571 32.8569 25 32.8569 25Z" fill="#474752"/>
<path d="M51.4283 25C51.4283 25 52.7075 22.8571 54.2854 22.8571C55.8634 22.8571 57.1426 23.8165 57.1426 25C57.1426 26.1835 55.8634 27.1429 54.2854 27.1429C52.7075 27.1429 51.4283 25 51.4283 25Z" fill="#474752"/>
</svg>
