<svg width="1063" height="214" viewBox="0 0 1063 214" fill="none" xmlns="http://www.w3.org/2000/svg">
<path d="M895.281 213.893V0.893066H926.642L1031.52 159.164V0.893066H1062.89V213.893H1031.52L926.642 55.4743V213.893H895.281Z" fill="#232329"/>
<path d="M723.658 213.893V0.893066H859.754V30.0327H754.576V89.791H842.003V118.931H754.576V184.753H859.754V213.893H723.658Z" fill="#232329"/>
<path d="M648.318 213.893V0.893066H679.235V213.893H648.318Z" fill="#232329"/>
<path d="M393.703 213.893V0.893066H421.662L498.882 161.087L575.658 0.893066H603.913V213.745H574.622V68.0472L505.835 213.893H491.781L422.845 68.0472V213.893H393.703Z" fill="#232329"/>
<path d="M184.174 213.893L253.405 0.893066H297.932L367.164 213.893H335.063L271.305 19.5306H279.293L216.275 213.893H184.174ZM220.121 165.82V136.828H331.365V165.82H220.121Z" fill="#232329"/>
<path d="M0.473633 213.893V0.893066H67.1904C69.1628 0.893066 72.8117 0.942374 78.1372 1.04099C83.5613 1.13959 88.7389 1.53403 93.6699 2.22431C110.337 4.29514 124.341 10.2611 135.682 20.1222C147.122 29.9833 155.752 42.507 161.57 57.6931C167.389 72.7806 170.298 89.3472 170.298 107.393C170.298 125.538 167.389 142.203 161.57 157.389C155.752 172.476 147.122 184.951 135.682 194.812C124.341 204.574 110.337 210.491 93.6699 212.562C88.7389 213.252 83.5613 213.647 78.1372 213.745C72.8117 213.844 69.1628 213.893 67.1904 213.893H0.473633ZM32.1308 184.458H67.1904C70.5434 184.458 74.5376 184.359 79.1727 184.162C83.8079 183.965 87.9007 183.57 91.451 182.978C102.299 180.908 111.076 176.224 117.783 168.926C124.587 161.531 129.568 152.458 132.724 141.71C135.88 130.961 137.457 119.522 137.457 107.393C137.457 94.8695 135.83 83.2826 132.576 72.6327C129.321 61.884 124.292 52.9104 117.487 45.7118C110.781 38.4146 102.102 33.7799 91.451 31.8076C87.9007 31.1174 83.7586 30.7229 79.0248 30.6243C74.3896 30.4271 70.4448 30.3285 67.1904 30.3285H32.1308V184.458Z" fill="#232329"/>
</svg>
