<svg width="91" height="19" viewBox="0 0 91 19" fill="none" xmlns="http://www.w3.org/2000/svg">
<path d="M76.6172 18.1602V0.160156H79.2672L88.1297 13.5352V0.160156H90.7797V18.1602H88.1297L79.2672 4.77266V18.1602H76.6172Z" fill="white"/>
<path d="M62.1152 18.1602V0.160156H73.6152V2.62266H64.7277V7.67266H72.1152V10.1352H64.7277V15.6977H73.6152V18.1602H62.1152Z" fill="white"/>
<path d="M55.749 18.1602V0.160156H58.3615V18.1602H55.749Z" fill="white"/>
<path d="M34.2344 18.1602V0.160156H36.5969L43.1219 13.6977L49.6094 0.160156H51.9969V18.1477H49.5219V5.83516L43.7094 18.1602H42.5219L36.6969 5.83516V18.1602H34.2344Z" fill="white"/>
<path d="M16.5293 18.1602L22.3793 0.160156H26.1418L31.9918 18.1602H29.2793L23.8918 1.73516H24.5668L19.2418 18.1602H16.5293ZM19.5668 14.0977V11.6477H28.9668V14.0977H19.5668Z" fill="white"/>
<path d="M1.00684 18.1602V0.160156H6.64434C6.811 0.160156 7.11934 0.164323 7.56934 0.172657C8.02767 0.18099 8.46517 0.214322 8.88184 0.272656C10.2902 0.447656 11.4735 0.951823 12.4318 1.78516C13.3985 2.61849 14.1277 3.67682 14.6193 4.96016C15.111 6.23516 15.3568 7.63516 15.3568 9.16016C15.3568 10.6935 15.111 12.1018 14.6193 13.3852C14.1277 14.6602 13.3985 15.7143 12.4318 16.5477C11.4735 17.3727 10.2902 17.8727 8.88184 18.0477C8.46517 18.106 8.02767 18.1393 7.56934 18.1477C7.11934 18.156 6.811 18.1602 6.64434 18.1602H1.00684ZM3.68184 15.6727H6.64434C6.92767 15.6727 7.26517 15.6643 7.65684 15.6477C8.0485 15.631 8.39434 15.5977 8.69434 15.5477C9.611 15.3727 10.3527 14.9768 10.9193 14.3602C11.4943 13.7352 11.9152 12.9685 12.1818 12.0602C12.4485 11.1518 12.5818 10.1852 12.5818 9.16016C12.5818 8.10182 12.4443 7.12266 12.1693 6.22266C11.8943 5.31432 11.4693 4.55599 10.8943 3.94766C10.3277 3.33099 9.59434 2.93932 8.69434 2.77266C8.39434 2.71432 8.04434 2.68099 7.64434 2.67266C7.25267 2.65599 6.91934 2.64766 6.64434 2.64766H3.68184V15.6727Z" fill="white"/>
</svg>
